<?xml version="1.0" encoding="UTF-8"?>
<svg version="1.1" xmlns="http://www.w3.org/2000/svg" width="527" height="210" viewBox="361 265 527 210" preserveAspectRatio="xMidYMid meet">
<path d="M0 0 C2.59432441 1.23794393 5.02377634 2.49957543 7.5 3.9375 C8.19778564 4.33791504 8.89557129 4.73833008 9.61450195 5.15087891 C38.06666616 21.77671588 59.33854751 44.77945531 76 73 C76.60642334 74.01537842 76.60642334 74.01537842 77.22509766 75.05126953 C91.4435847 99.03052533 102.40828681 125.63037607 108 153 C108.22429687 154.09368896 108.22429687 154.09368896 108.453125 155.20947266 C112.35845547 175.11908307 113.56851839 196.56254761 107 216 C106.78037598 216.65532715 106.56075195 217.3106543 106.33447266 217.98583984 C99.64986648 237.31111673 87.19329575 252.75628858 71 265 C70.67 265.33 70.34 265.66 70 266 C70.06608119 274.68967667 71.79199586 283.35619094 73.18359375 291.91015625 C73.99098755 296.89083227 74.72758728 301.87958567 75.4375 306.875 C75.56068604 307.73778564 75.68387207 308.60057129 75.81079102 309.48950195 C76.52155186 314.50544273 77.20463393 319.52433863 77.8671875 324.546875 C79.64318773 337.90198478 81.66741024 351.17070304 84 364.4375 C86.51731006 378.79043001 88.60009268 393.15767752 90.43310547 407.61572266 C91.08456972 412.69949408 91.77941912 417.7772545 92.47265625 422.85546875 C97.12174962 456.98374543 97.12174962 456.98374543 98.875 473.6875 C98.99496338 474.81293213 99.11492676 475.93836426 99.23852539 477.09790039 C100.94296953 494.15418731 100.94296953 494.15418731 98.71484375 498.515625 C98.12832031 499.08796875 97.54179688 499.6603125 96.9375 500.25 C96.28652344 500.89453125 95.63554688 501.5390625 94.96484375 502.203125 C94.31644531 502.79609375 93.66804688 503.3890625 93 504 C92.50628906 504.51046875 92.01257813 505.0209375 91.50390625 505.546875 C81.16050899 515.54101469 65.80799662 520.29481593 52.59033203 525.06005859 C50.82585837 525.70032472 49.06652864 526.35490564 47.31201172 527.02197266 C40.83504764 529.46164835 34.37098777 531.33633698 27.625 532.875 C26.5321167 533.12475586 25.4392334 533.37451172 24.31323242 533.63183594 C14.36690172 535.82736081 4.36046667 537.59249916 -5.6875 539.25 C-6.42917419 539.37469666 -7.17084839 539.49939331 -7.93499756 539.62786865 C-32.25901766 543.68422839 -56.5182706 544.43713527 -81.125 544.4375 C-81.89927212 544.43855869 -82.67354424 544.43961739 -83.47127914 544.44070816 C-103.85347855 544.46698706 -124.04290944 544.08034972 -144.3125 541.6875 C-145.22235657 541.58090057 -146.13221313 541.47430115 -147.06964111 541.36447144 C-170.4709322 538.5290678 -170.4709322 538.5290678 -174 535 C-175.32366528 534.71561952 -176.65857726 534.48322713 -177.99609375 534.2734375 C-240.68139032 523.95282919 -240.68139032 523.95282919 -256.625 507.25 C-259.0177845 503.33453445 -259.18083717 500.46806247 -259.16796875 495.9609375 C-259.16613083 495.18326019 -259.16429291 494.40558289 -259.16239929 493.6043396 C-259.03183613 479.59944524 -258.10852865 465.60488558 -257.3125 451.625 C-257.26838737 450.84240688 -257.22427475 450.05981377 -257.17882538 449.25350571 C-255.66014973 422.32386698 -253.5283568 395.51321817 -250.69726562 368.68701172 C-249.98684838 361.92652829 -249.31608741 355.16234901 -248.65143204 348.39723015 C-248.32103385 345.03451263 -247.98930771 341.67192606 -247.65771484 338.30932617 C-247.59227919 337.64572492 -247.52684353 336.98212366 -247.45942497 336.29841328 C-247.26468877 334.32393507 -247.06984503 332.34946747 -246.875 330.375 C-246.7528009 329.13666412 -246.63060181 327.89832825 -246.50469971 326.62246704 C-245.20777679 313.52354563 -243.86027001 300.43147694 -242.3828125 287.3515625 C-242.25921356 286.23752045 -242.13561462 285.12347839 -242.00827026 283.97567749 C-241.89097565 282.95583771 -241.77368103 281.93599792 -241.65283203 280.88525391 C-241.5506839 279.9870694 -241.44853577 279.08888489 -241.34329224 278.16348267 C-241 276 -241 276 -240 274 C-240.86109375 273.74476563 -241.7221875 273.48953125 -242.609375 273.2265625 C-264.01753831 265.48213476 -281.32988947 246.39445714 -290.875 226.25 C-303.69879388 196.06340616 -297.77413485 164.52306596 -286 135 C-282.34702039 126.4953664 -278.24769157 118.22079061 -274 110 C-273.56929199 109.16210938 -273.13858398 108.32421875 -272.69482422 107.4609375 C-261.57338592 86.05691493 -247.31707556 66.07719839 -230.61376953 48.68115234 C-229.51868493 47.54034258 -228.42866635 46.39465238 -227.34326172 45.24462891 C-214.47619986 31.64188174 -200.52091352 21.64052623 -183.91357422 13.01171875 C-182.21594325 12.11417055 -180.55918453 11.14024665 -178.91015625 10.15625 C-175.05778625 8.62564393 -173.05612086 9.11770181 -169 10 C-167.11341534 10.3860725 -165.22668226 10.77142005 -163.33984375 11.15625 C-160.08137145 11.83885186 -156.8235222 12.52415435 -153.56665039 13.21435547 C-147.56161848 14.44137358 -142.05803468 15.19152755 -135.9375 15.125 C-132.22408227 15.30976957 -130.6283826 15.43650473 -127.84375 17.93359375 C-126.12718206 20.30090978 -124.6141603 22.72044918 -123.12695312 25.23583984 C-120.93537199 28.66659489 -118.27992805 31.74329588 -115.6875 34.875 C-115.13610352 35.54926025 -114.58470703 36.22352051 -114.01660156 36.91821289 C-108.75459737 43.34366372 -103.39497053 49.68604652 -98 56 C-94.31502988 54.77167663 -93.50049192 53.41383683 -91.125 50.375 C-87.35618921 45.64864119 -83.47922271 41.05041131 -79.5 36.5 C-70.53078784 26.66245342 -70.53078784 26.66245342 -62.74926758 15.94702148 C-60.39530778 13.3269476 -58.65350052 13.16929703 -55.20703125 12.578125 C-54.02987549 12.36115967 -52.85271973 12.14419434 -51.63989258 11.9206543 C-50.37685303 11.69933838 -49.11381348 11.47802246 -47.8125 11.25 C-33.7797608 8.59335471 -13.14292429 -3.17825389 0 0 Z " fill="#8E473A" transform="translate(720,506)"/>
<path d="M0 0 C0.83383209 -0.0033284 1.66766418 -0.0066568 2.52676392 -0.01008606 C4.28655451 -0.01512259 6.04635455 -0.0174954 7.80615234 -0.01733398 C10.43474108 -0.01949684 13.06289284 -0.03762206 15.69140625 -0.05664062 C31.30389518 -0.11081112 46.42718032 1.06711376 61.6015625 4.91796875 C62.66197754 5.18254883 63.72239258 5.44712891 64.81494141 5.71972656 C80.66183723 9.75626779 94.64919504 14.94170677 108.93408203 22.95703125 C110.89343359 24.05169038 112.86561509 25.11515984 114.84765625 26.16796875 C127.35747236 32.98375959 138.65076511 41.58243879 149.06640625 51.28515625 C150.76065813 52.85258313 152.47855311 54.30286082 154.2890625 55.73046875 C157.96908074 58.91981789 160.99301932 62.4272778 164.1015625 66.16796875 C164.52179688 66.65990723 164.94203125 67.1518457 165.375 67.65869141 C201.72825737 110.31472045 218.62250731 166.59404914 214.71484375 222.17578125 C213.62472212 235.76011069 212.03522305 249.08199131 208.1015625 262.16796875 C208.8853125 261.83796875 209.6690625 261.50796875 210.4765625 261.16796875 C218.27487034 259.01671141 224.59364442 259.53000405 231.70703125 263.484375 C238.82257823 268.4873126 243.54141073 274.9494915 245.65234375 283.36328125 C247.30263928 293.6668655 246.72903327 304.38701519 243.1015625 314.16796875 C242.77285156 315.12960937 242.44414063 316.09125 242.10546875 317.08203125 C236.84017607 331.18354175 227.28218468 342.4329221 213.6640625 348.98046875 C201.82558415 353.91594705 191.71385893 355.03645711 179.1015625 353.16796875 C178.83601563 354.039375 178.57046875 354.91078125 178.296875 355.80859375 C168.24389166 384.06207634 140.35666152 402.80783113 115.1015625 416.16796875 C114.52349854 416.48725342 113.94543457 416.80653809 113.34985352 417.13549805 C106.88364793 420.57515183 99.97326288 422.80644647 93.0390625 425.10546875 C92.38381592 425.3241864 91.72856934 425.54290405 91.0534668 425.76824951 C60.84574768 435.79679368 60.84574768 435.79679368 48.1015625 435.16796875 C47.88242187 435.69648437 47.66328125 436.225 47.4375 436.76953125 C45.61084003 440.04897342 43.19056368 442.73571586 40.7265625 445.54296875 C39.63925554 446.79681657 38.55201793 448.05072454 37.46484375 449.3046875 C36.90748535 449.9445459 36.35012695 450.5844043 35.77587891 451.24365234 C33.14263438 454.2700789 30.52667204 457.31122537 27.9140625 460.35546875 C27.17422119 461.21688477 27.17422119 461.21688477 26.41943359 462.09570312 C21.89226775 467.38215783 17.47641498 472.75464119 13.1015625 478.16796875 C10.20277481 476.87374919 8.31771632 475.58935636 6.25390625 473.18359375 C5.73642822 472.58490479 5.2189502 471.98621582 4.68579102 471.36938477 C4.14237061 470.72541748 3.5989502 470.0814502 3.0390625 469.41796875 C2.47050537 468.75273193 1.90194824 468.08749512 1.31616211 467.40209961 C-4.28180812 460.80657935 -9.63053711 454.02829001 -14.8984375 447.16796875 C-15.56359375 446.31589844 -16.22875 445.46382812 -16.9140625 444.5859375 C-20.8984375 439.419283 -20.8984375 439.419283 -20.8984375 437.16796875 C-21.61902344 437.22597656 -22.33960938 437.28398438 -23.08203125 437.34375 C-63.43948942 439.03944152 -112.10087658 418.90425853 -142.0859375 392.73046875 C-153.32346369 382.29946358 -162.59825195 370.23160874 -168.8984375 356.16796875 C-168.8984375 355.17796875 -168.8984375 354.18796875 -168.8984375 353.16796875 C-169.70925781 353.214375 -170.52007812 353.26078125 -171.35546875 353.30859375 C-185.85516617 353.78122649 -196.12794918 348.63767719 -206.6484375 338.85546875 C-218.88383435 325.90371377 -223.48846139 308.82292954 -223.171875 291.46875 C-222.72686507 281.46924471 -218.85994411 273.29558507 -211.8984375 266.16796875 C-207.48480636 262.39384236 -203.26836309 261.03086283 -197.5234375 260.98046875 C-196.79382813 260.96628906 -196.06421875 260.95210938 -195.3125 260.9375 C-192.31125846 261.2240263 -189.72204595 262.13861293 -186.8984375 263.16796875 C-187.08019531 262.25402344 -187.26195312 261.34007812 -187.44921875 260.3984375 C-192.59081037 233.55250136 -195.20511339 206.28912387 -190.8984375 179.16796875 C-190.71015301 177.71658141 -190.5253986 176.26473278 -190.34375 174.8125 C-183.65977543 124.09419862 -156.01702147 75.85698859 -115.7734375 44.23046875 C-113.50707565 42.50661767 -111.20940645 40.83133284 -108.8984375 39.16796875 C-108.36202637 38.77125977 -107.82561523 38.37455078 -107.27294922 37.96582031 C-89.23138722 24.71189921 -68.35200306 14.46329694 -46.8984375 8.16796875 C-46.18171875 7.95462891 -45.465 7.74128906 -44.7265625 7.52148438 C-37.8248713 5.4957102 -31.05440227 3.93467926 -23.8984375 3.16796875 C-22.7434375 2.83796875 -21.5884375 2.50796875 -20.3984375 2.16796875 C-13.66164481 0.24317084 -6.95722679 0.00996169 0 0 Z " fill="#FDC8A4" transform="translate(610.8984375,84.83203125)"/>
<path d="M0 0 C12.21393002 9.07272777 21.32975495 19.84246356 26.85546875 34.12109375 C27.28859375 35.21421875 27.72171875 36.30734375 28.16796875 37.43359375 C28.93213525 40.42079008 28.90207434 43.0493618 28.85546875 46.12109375 C30.96082519 44.47676427 33.06486401 42.83079965 35.16796875 41.18359375 C35.80009277 40.68939941 36.4322168 40.19520508 37.08349609 39.68603516 C40.12072771 37.3031882 43.13821896 34.90563113 46.09375 32.421875 C47.04636719 31.62136719 47.99898437 30.82085937 48.98046875 29.99609375 C49.82867188 29.27164063 50.676875 28.5471875 51.55078125 27.80078125 C53.79305355 26.16658279 55.23069477 25.75811755 57.85546875 25.12109375 C58.19578125 23.82171875 58.19578125 23.82171875 58.54296875 22.49609375 C61.0905955 15.94505353 67.57239269 12.46467278 73.79296875 9.68359375 C80.90876894 7.15402027 87.01538217 6.99139966 93.98046875 10.05859375 C101.63298704 14.31267085 107.14192882 20.82085395 109.85546875 29.12109375 C112.5207473 39.74440256 111.63460862 51.93118624 107.85546875 62.12109375 C107.52675781 63.08273437 107.19804688 64.044375 106.859375 65.03515625 C101.59408232 79.13666675 92.03609093 90.3860471 78.41796875 96.93359375 C66.5794904 101.86907205 56.46776518 102.98958211 43.85546875 101.12109375 C43.58992188 101.9925 43.324375 102.86390625 43.05078125 103.76171875 C32.99779791 132.01520134 5.11056777 150.76095613 -20.14453125 164.12109375 C-20.72259521 164.44037842 -21.30065918 164.75966309 -21.89624023 165.08862305 C-28.36244582 168.52827683 -35.27283087 170.75957147 -42.20703125 173.05859375 C-42.86227783 173.2773114 -43.51752441 173.49602905 -44.19262695 173.72137451 C-74.40034607 183.74991868 -74.40034607 183.74991868 -87.14453125 183.12109375 C-87.36367188 183.64960937 -87.5828125 184.178125 -87.80859375 184.72265625 C-89.63525372 188.00209842 -92.05553007 190.68884086 -94.51953125 193.49609375 C-95.60683821 194.74994157 -96.69407582 196.00384954 -97.78125 197.2578125 C-98.3386084 197.8976709 -98.8959668 198.5375293 -99.47021484 199.19677734 C-102.10345937 202.2232039 -104.71942171 205.26435037 -107.33203125 208.30859375 C-108.07187256 209.17000977 -108.07187256 209.17000977 -108.82666016 210.04882812 C-113.353826 215.33528283 -117.76967877 220.70776619 -122.14453125 226.12109375 C-125.04331894 224.82687419 -126.92837743 223.54248136 -128.9921875 221.13671875 C-129.50966553 220.53802979 -130.02714355 219.93934082 -130.56030273 219.32250977 C-131.10372314 218.67854248 -131.64714355 218.0345752 -132.20703125 217.37109375 C-132.77558838 216.70585693 -133.34414551 216.04062012 -133.92993164 215.35522461 C-139.52790187 208.75970435 -144.87663086 201.98141501 -150.14453125 195.12109375 C-150.8096875 194.26902344 -151.47484375 193.41695312 -152.16015625 192.5390625 C-156.14453125 187.372408 -156.14453125 187.372408 -156.14453125 185.12109375 C-157.22541016 185.20810547 -157.22541016 185.20810547 -158.328125 185.296875 C-198.68558317 186.99256652 -247.34697033 166.85738353 -277.33203125 140.68359375 C-288.56955744 130.25258858 -297.8443457 118.18473374 -304.14453125 104.12109375 C-304.14453125 103.13109375 -304.14453125 102.14109375 -304.14453125 101.12109375 C-304.95535156 101.1675 -305.76617187 101.21390625 -306.6015625 101.26171875 C-321.10125992 101.73435149 -331.37404293 96.59080219 -341.89453125 86.80859375 C-354.1299281 73.85683877 -358.73455514 56.77605454 -358.41796875 39.421875 C-357.97295882 29.42236971 -354.10603786 21.24871007 -347.14453125 14.12109375 C-342.76838338 10.37901956 -338.5291757 8.99252489 -332.83203125 8.87109375 C-332.11402344 8.8453125 -331.39601563 8.81953125 -330.65625 8.79296875 C-326.82700167 9.2932127 -324.44656134 10.04246389 -321.14453125 12.12109375 C-319.66758076 15.39292036 -319.16706697 18.71158329 -318.64453125 22.24609375 C-318.39316406 23.64408203 -318.39316406 23.64408203 -318.13671875 25.0703125 C-317.31404446 29.85995013 -317.31404446 29.85995013 -317.14453125 32.12109375 C-317.47453125 32.45109375 -317.80453125 32.78109375 -318.14453125 33.12109375 C-317.59925781 33.47300781 -317.05398438 33.82492187 -316.4921875 34.1875 C-310.8184427 37.90210557 -305.44153755 41.8884977 -300.14453125 46.12109375 C-300.19609375 45.1053125 -300.24765625 44.08953125 -300.30078125 43.04296875 C-299.86790212 32.17770256 -292.76693434 22.28872423 -286.14453125 14.12109375 C-285.59023438 13.40308594 -285.0359375 12.68507813 -284.46484375 11.9453125 C-275.01608033 0.30389346 -259.48603211 -9.09549171 -244.46484375 -10.70898438 C-239.69381381 -11.05837798 -234.92657279 -11.10523278 -230.14453125 -11.12890625 C-229.10296875 -11.14953125 -228.06140625 -11.17015625 -226.98828125 -11.19140625 C-220.68553869 -11.22323828 -215.8296073 -10.59739805 -210.14453125 -7.87890625 C-209.50563965 -7.59789062 -208.86674805 -7.316875 -208.20849609 -7.02734375 C-188.32978071 1.85389733 -174.14284249 15.6866004 -166.14453125 36.12109375 C-164.87904303 40.17232973 -164.14453125 43.84329569 -164.14453125 48.12109375 C-163.45488281 47.78335938 -162.76523437 47.445625 -162.0546875 47.09765625 C-147.35320034 40.11999568 -132.81260437 38.91293036 -117.14453125 44.12109375 C-113.76797433 45.36227871 -110.44224076 46.6838177 -107.14453125 48.12109375 C-106.98984375 46.69796875 -106.98984375 46.69796875 -106.83203125 45.24609375 C-104.14725615 27.74275481 -93.56725943 11.87502901 -79.36962891 1.4140625 C-73.30823875 -2.84404183 -67.07089033 -6.27001177 -60.14453125 -8.87890625 C-59.34402344 -9.19730469 -58.54351563 -9.51570313 -57.71875 -9.84375 C-38.35971549 -16.3770478 -16.54552107 -11.09325811 0 0 Z " fill="#FDC8A3" transform="translate(746.14453125,336.87890625)"/>
<path d="M0 0 C0.89138672 0.12846313 0.89138672 0.12846313 1.80078125 0.25952148 C4.5337451 0.65294289 7.26687088 1.04522846 10 1.4375 C11.40185547 1.63956055 11.40185547 1.63956055 12.83203125 1.84570312 C14.69682615 2.11303386 16.56215062 2.3766957 18.42797852 2.63671875 C20.54711321 2.9360327 22.66280038 3.25965135 24.77734375 3.58984375 C31.00212775 4.34678381 37.30328899 4.1466662 43.5625 4.125 C44.22864319 4.12411377 44.89478638 4.12322754 45.58111572 4.12231445 C55.0905855 4.10740888 64.53284016 3.93010693 74 3 C75.87972878 12.12868285 77.73601994 21.25283657 79.25463867 30.44946289 C81.31880734 42.91014946 83.8537257 55.26385425 86.4375 67.625 C86.62468597 68.52485626 86.81187195 69.42471252 87.00473022 70.35183716 C89.44804903 82.07472085 92.08854939 93.73625763 94.89477539 105.37744141 C95.75160664 108.93877342 96.56963701 112.50554598 97.34375 116.0859375 C100.60424121 131.0959466 104.60682014 145.88350656 108.6875 160.6875 C108.97544434 161.7375824 109.26338867 162.78766479 109.56005859 163.86956787 C110.39216729 166.89780182 111.2317934 169.92384042 112.07421875 172.94921875 C112.44899605 174.31340691 112.44899605 174.31340691 112.8313446 175.70515442 C114.22546597 180.66773921 115.8504236 185.31316641 118 190 C119.32 190 120.64 190 122 190 C121.29662297 183.0170762 119.80349123 176.32400685 118.1875 169.5 C117.88835693 168.22318359 117.58921387 166.94636719 117.28100586 165.63085938 C115.3159156 157.29624939 113.25236841 148.98806691 111.1484375 140.6875 C105.41871345 118.07058134 100.00275291 95.46685296 95.36038208 72.60125732 C93.87541154 65.31641641 92.26239538 58.06149971 90.64498901 50.80514526 C87.55538878 36.92595449 84.99303067 23.07804394 83 9 C85.92015213 12.52401075 87.78429837 16.46528572 89.75 20.5625 C100.42340115 42.26410357 115.61993722 63.50934557 138 74 C139.2065625 74.56847656 139.2065625 74.56847656 140.4375 75.1484375 C153.93703621 80.25763697 170.15750383 77.43586471 182.8515625 71.71484375 C195.85042412 65.14217992 213.99823627 51.38651631 219 37 C219.60760985 33.94325508 219.8510496 31.12795848 220 28 C220.33 28 220.66 28 221 28 C221.15819214 29.22178955 221.15819214 29.22178955 221.31958008 30.46826172 C223.81352256 49.90806556 223.81352256 49.90806556 226.86132812 69.26611328 C227.95220921 75.57908251 228.88862837 81.91061846 229.8125 88.25 C230.99862792 96.38210247 232.22755535 104.50521489 233.51953125 112.62109375 C233.71791344 113.86830704 233.71791344 113.86830704 233.92030334 115.14071655 C234.57406177 119.24519282 235.23163223 123.34902064 235.89379883 127.45214844 C237.2435028 135.86407322 238.45025688 144.27276569 239.47265625 152.73217773 C240.06806009 157.62354152 240.73537253 162.50468168 241.40234375 167.38671875 C246.17396602 202.43209525 246.17396602 202.43209525 247.875 218.6875 C248.05470337 220.3739563 248.05470337 220.3739563 248.23803711 222.09448242 C249.94350776 239.15313374 249.94350776 239.15313374 247.71484375 243.515625 C247.12832031 244.08796875 246.54179688 244.6603125 245.9375 245.25 C245.28652344 245.89453125 244.63554688 246.5390625 243.96484375 247.203125 C243.31644531 247.79609375 242.66804688 248.3890625 242 249 C241.50628906 249.51046875 241.01257813 250.0209375 240.50390625 250.546875 C230.16050899 260.54101469 214.80799662 265.29481593 201.59033203 270.06005859 C199.82585837 270.70032472 198.06652864 271.35490564 196.31201172 272.02197266 C189.83504764 274.46164835 183.37098777 276.33633698 176.625 277.875 C175.5321167 278.12475586 174.4392334 278.37451172 173.31323242 278.63183594 C163.36690172 280.82736081 153.36046667 282.59249916 143.3125 284.25 C142.57082581 284.37469666 141.82915161 284.49939331 141.06500244 284.62786865 C116.74098234 288.68422839 92.4817294 289.43713527 67.875 289.4375 C67.10072788 289.43855869 66.32645576 289.43961739 65.52872086 289.44070816 C45.14652145 289.46698706 24.95709056 289.08034972 4.6875 286.6875 C3.77764343 286.58090057 2.86778687 286.47430115 1.93035889 286.36447144 C-21.4709322 283.5290678 -21.4709322 283.5290678 -26 279 C-26.13453212 275.90754659 -26.14226959 272.91116113 -26.05932617 269.82226562 C-26.03291298 268.39217667 -26.03291298 268.39217667 -26.00596619 266.93319702 C-25.94477732 263.75726585 -25.86896764 260.58185867 -25.79296875 257.40625 C-25.74684369 255.18454653 -25.70155325 252.96282559 -25.65705872 250.74108887 C-25.56127614 246.05998514 -25.45891118 241.37908918 -25.35131836 236.69824219 C-25.21518063 230.77539805 -25.08941085 224.85240115 -24.96805859 218.92923737 C-24.8506269 213.21316774 -24.72844629 207.49720264 -24.60546875 201.78125 C-24.58295736 200.72412308 -24.56044598 199.66699615 -24.53725243 198.57783508 C-23.64938135 157.51816736 -23.64938135 157.51816736 -22.09765625 137.24609375 C-21.97371742 135.56387474 -21.97371742 135.56387474 -21.84727478 133.84767151 C-21.675565 131.53198852 -21.50165153 129.21646779 -21.32543945 126.90112305 C-21.06024763 123.40783015 -20.80408539 119.91395335 -20.54882812 116.41992188 C-19.81206692 106.48693683 -19.04824521 96.57645793 -17.80589294 86.69229126 C-16.95907152 79.90705267 -16.30125227 73.10559343 -15.6328125 66.30078125 C-15.25850483 62.57414663 -14.88218271 58.8477201 -14.50537109 55.12133789 C-14.2498778 52.56296125 -13.99995833 50.00402238 -13.75537109 47.44458008 C-13.39669064 43.70741479 -13.01677249 39.97292289 -12.6328125 36.23828125 C-12.52848907 35.09764725 -12.42416565 33.95701324 -12.31668091 32.78181458 C-11.66532688 26.65800469 -10.88999741 22.79929201 -7 18 C-6.00779932 16.05678977 -6.00779932 16.05678977 -5.33203125 14.23828125 C-5.07873047 13.59439453 -4.82542969 12.95050781 -4.56445312 12.28710938 C-4.31630859 11.63548828 -4.06816406 10.98386719 -3.8125 10.3125 C-3.42288086 9.31766602 -3.42288086 9.31766602 -3.02539062 8.30273438 C-1.95361742 5.55268065 -0.93345229 2.80035686 0 0 Z " fill="#A15446" transform="translate(571,761)"/>
<path d="M0 0 C10.60265496 4.82620851 19.70848247 13.99716727 28 22 C28.56340088 22.53858643 29.12680176 23.07717285 29.70727539 23.63208008 C33.81647987 27.63561769 37.40543801 31.82576934 40.8125 36.4375 C41.32603027 37.12924316 41.83956055 37.82098633 42.36865234 38.53369141 C47.67022805 45.77115296 52.44087541 53.27792539 57 61 C57.60642334 62.01537842 57.60642334 62.01537842 58.22509766 63.05126953 C72.4435847 87.03052533 83.40828681 113.63037607 89 141 C89.22429687 142.09368896 89.22429687 142.09368896 89.453125 143.20947266 C93.35845547 163.11908307 94.56851839 184.56254761 88 204 C87.78037598 204.65532715 87.56075195 205.3106543 87.33447266 205.98583984 C81.04392075 224.17190109 69.50514311 239.53569773 54.27734375 251.23046875 C52.05621323 252.85787178 52.05621323 252.85787178 50.6015625 254.5078125 C48.18731818 256.7571816 45.33895438 258.16708064 42.4375 259.6875 C41.78346191 260.03200195 41.12942383 260.37650391 40.45556641 260.73144531 C16.16015933 273.3332953 -11.14779705 282.75718116 -39 280 C-39.66 279.34 -40.32 278.68 -41 278 C-39.824375 277.13375 -39.824375 277.13375 -38.625 276.25 C-34.34999139 272.5857069 -33.7487573 269.47147462 -33 264 C-32.90830843 261.29925078 -32.85961764 258.62571547 -32.8671875 255.92578125 C-32.86623077 255.16130173 -32.86527405 254.3968222 -32.86428833 253.60917664 C-32.86361052 251.99636757 -32.86543687 250.38355572 -32.86962891 248.77075195 C-32.87494573 246.33733779 -32.8696895 243.90411133 -32.86328125 241.47070312 C-32.86012922 233.26186847 -33.00725154 225.16247279 -34 217 C-34.64428955 216.8774585 -35.2885791 216.75491699 -35.95239258 216.62866211 C-54.06676439 213.15053334 -54.06676439 213.15053334 -62.41015625 209.15234375 C-65.10290649 207.95421205 -67.84242876 206.96639699 -70.62036133 205.98535156 C-80.64619579 202.4188211 -90.18903161 197.92004222 -98.5625 191.25 C-101.61468137 188.91051073 -104.746288 188.13015842 -108.4375 187.125 C-116.1298312 184.93224352 -120.88982999 181.45300548 -125.0625 174.625 C-126.85158582 171.60719341 -126.85158582 171.60719341 -130.75 171.125 C-131.8225 171.08375 -132.895 171.0425 -134 171 C-134.31710937 171.59167969 -134.63421875 172.18335938 -134.9609375 172.79296875 C-139.37839681 180.27336256 -144.48478183 183.04740723 -152.515625 185.890625 C-156.23485076 187.55141135 -158.95732093 190.17804189 -162.01171875 192.83203125 C-169.85328021 198.52100721 -178.90173223 201.58965593 -188 204.6875 C-189.11117187 205.07744141 -190.22234375 205.46738281 -191.3671875 205.86914062 C-200.16668899 208.89720437 -208.63558382 211.40714853 -218 211 C-218.19100129 205.13244037 -217.80624415 199.72922 -216.4375 194 C-216.1751355 192.87198975 -216.1751355 192.87198975 -215.9074707 191.72119141 C-205.32513196 147.2958823 -205.32513196 147.2958823 -195 137 C-192.40548184 135.81272593 -190.20024938 134.94945156 -187.5 134.1875 C-186.52353516 133.88295898 -186.52353516 133.88295898 -185.52734375 133.57226562 C-182.05172222 132.50851479 -178.57726266 131.63977967 -175 131 C-171.24380523 118.38413024 -171.24380523 118.38413024 -167.7734375 105.6875 C-156.19883336 65.46867348 -156.19883336 65.46867348 -144 58 C-139.46090756 56.62206122 -137.79084447 56.58300928 -133.5625 58.8125 C-132.716875 59.534375 -131.87125 60.25625 -131 61 C-131 61.66 -131 62.32 -131 63 C-130.34 63 -129.68 63 -129 63 C-128.71125 62.38125 -128.4225 61.7625 -128.125 61.125 C-127 59 -127 59 -125 57 C-121.02908987 56.86539288 -118.45773962 56.95333663 -115.19921875 59.29296875 C-105.40063865 69.49700734 -100.71098741 84.81080018 -95.3125 97.625 C-95.03645935 98.27904816 -94.7604187 98.93309631 -94.47601318 99.60696411 C-84 124.51078368 -84 124.51078368 -84 131 C-83.32195312 131.10957031 -82.64390625 131.21914063 -81.9453125 131.33203125 C-76.17188011 132.31559383 -70.72619805 133.58776312 -65.19140625 135.51171875 C-62.71058453 136.06448651 -61.36733861 135.87324004 -59 135 C-58.38125 134.505 -57.7625 134.01 -57.125 133.5 C-51.79103264 129.73484657 -44.4604245 131.00617501 -38.25 131.3125 C-37.3115625 131.34794922 -36.373125 131.38339844 -35.40625 131.41992188 C-30.93266886 131.62691769 -26.73834126 131.99500775 -22.3828125 133.05078125 C-14.23173549 134.82475377 -5.60640746 134.04780743 2.69042969 133.80810547 C11.57476922 133.56875224 19.10371996 133.67219711 27.50634766 137.03173828 C29.99896689 137.99959885 32.369317 138.55042673 35 139 C34.99151109 137.10110612 34.99151109 137.10110612 34 135 C31.84065147 133.57645173 29.8816262 132.46580478 27.5625 131.375 C26.9228833 131.06941162 26.2832666 130.76382324 25.62426758 130.44897461 C14.85322135 125.47387366 4.62530418 125.75724423 -7 126 C-11.07176293 117.85647415 -7.42256695 103.56780405 -6.13842773 94.75927734 C-5.81313225 92.50438267 -5.51425391 90.24699614 -5.21679688 87.98828125 C-3.89482418 78.45917495 -1.62837125 69.92534809 2 61 C-4.21055618 63.71228067 -5.55930242 70.01857213 -8 76 C-9.10132324 78.97488907 -10.0737656 81.96714711 -11 85 C-11.49306641 86.40765625 -11.49306641 86.40765625 -11.99609375 87.84375 C-13.02278602 91.07163855 -13.68412892 94.23560279 -14.3125 97.5625 C-16.19784188 106.59682863 -19.05546055 115.16635464 -24 123 C-34.38955119 122.67947129 -44.64881452 122.10005495 -54.9375 120.5625 C-56.18708496 120.37917114 -56.18708496 120.37917114 -57.46191406 120.19213867 C-65.1939522 118.97041314 -68.97852189 117.57411436 -73.70507812 111.13671875 C-74.50075195 110.01716797 -74.50075195 110.01716797 -75.3125 108.875 C-75.86228516 108.12089844 -76.41207031 107.36679687 -76.97851562 106.58984375 C-78.32946556 104.73375601 -79.66931874 102.87064483 -81 101 C-79.50181244 97.7952705 -77.70254284 95.41802223 -75.32055664 92.79150391 C-60.27573404 76.16596415 -49.19501303 56.85074326 -39 37 C-38.60248535 36.22994629 -38.2049707 35.45989258 -37.79541016 34.66650391 C-34.0750639 27.61174899 -34.0750639 27.61174899 -31.0546875 20.25 C-30 18 -30 18 -28.36328125 16.91796875 C-27.34814453 16.55638672 -27.34814453 16.55638672 -26.3125 16.1875 C-21.76519203 14.38042647 -17.49690467 12.24236036 -13.1875 9.9375 C-12.21840698 9.426427 -12.21840698 9.426427 -11.22973633 8.9050293 C-8.58189415 7.48850099 -6.07918639 6.05948961 -3.67578125 4.25390625 C-2 3 -2 3 0 3 C0 2.01 0 1.02 0 0 Z " fill="#A15346" transform="translate(739,518)"/>
<path d="M0 0 C2.83068674 1.31091235 5.50099906 2.85531189 8.1875 4.4375 C8.89841797 4.84548828 9.60933594 5.25347656 10.34179688 5.67382812 C13.29233946 7.37531693 16.16427547 9.10951698 19 11 C19 12.32 19 13.64 19 15 C11.78031255 21.22484863 1.26633772 26.60681228 -7.9375 29.0625 C-12.26522127 31.80044611 -12.69564726 34.91934556 -14.3046875 39.671875 C-19.76075811 54.58082157 -29.02663016 68.9448807 -38 82 C-38.57282715 82.84449707 -38.57282715 82.84449707 -39.15722656 83.70605469 C-44.37925578 91.37897906 -49.95397912 98.5455029 -56.24145508 105.3828125 C-59.56197329 109.05498417 -59.56197329 109.05498417 -60 114 C-57.15989612 120.56341627 -52.1629357 127.50196246 -45.66796875 130.578125 C-42.51798177 131.23104402 -39.46482539 131.65640097 -36.25439453 131.85253906 C-33.70861022 132.01905993 -31.18713264 132.29735185 -28.65234375 132.5859375 C-20.74770642 133.45268009 -12.95645598 134.11985391 -5 134 C-0.09878841 124.02310003 3.30830462 114.73237729 5 103.75 C5.73881238 99.06484833 6.92741877 95.298687 9 91 C9.81646175 88.98076405 10.62859068 86.9597733 11.4375 84.9375 C13.26151612 80.57191188 14.9632116 76.64414608 18 73 C18.99 73 19.98 73 21 73 C20.39720947 77.17033423 19.42682552 80.96171457 18.078125 84.94921875 C15.81516995 92.16264372 14.68445741 99.32436846 13.75 106.8125 C13.66528442 107.46454407 13.58056885 108.11658813 13.49328613 108.78839111 C12.22556034 118.57591818 11.43284216 128.13775538 12 138 C12.53367187 137.83886719 13.06734375 137.67773438 13.6171875 137.51171875 C27.99977398 134.42299936 40.73649477 139.01112068 53 146 C53.66 146.66 54.32 147.32 55 148 C54.625 150.125 54.625 150.125 54 152 C50.35726192 151.37747054 47.21268011 150.31414434 43.7890625 148.9453125 C35.68814723 146.20037427 27.81123387 146.63127076 19.375 146.875 C1.75492705 147.30033761 1.75492705 147.30033761 -5.68798828 145.49853516 C-10.11314583 144.54434596 -14.61370535 144.4439669 -19.125 144.25 C-20.06214844 144.19457031 -20.99929688 144.13914062 -21.96484375 144.08203125 C-27.71306778 143.8167286 -32.5486576 144.06118538 -38 146 C-38.33 146.99 -38.66 147.98 -39 149 C-44.36507756 148.31781795 -49.55479939 147.25856493 -54.8125 146 C-55.9562207 145.73316406 -55.9562207 145.73316406 -57.12304688 145.4609375 C-62.74017857 144.12991071 -62.74017857 144.12991071 -65 143 C-65.93063794 140.42472649 -66.76354774 137.86632205 -67.5625 135.25 C-70.68327943 125.48728569 -74.62544414 116.19183718 -78.76611328 106.82519531 C-80.069707 103.84039387 -81.33293182 100.84067647 -82.58984375 97.8359375 C-83.02329102 96.81008545 -83.45673828 95.7842334 -83.90332031 94.72729492 C-84.73467919 92.7593768 -85.5587392 90.78835255 -86.37402344 88.8137207 C-89.46739264 81.56420195 -93.28081588 73.16684477 -101 70 C-103.54327108 69.33314062 -103.54327108 69.33314062 -106 70 C-108.20142332 72.4390706 -108.20142332 72.4390706 -110 75 C-110.66 75 -111.32 75 -112 75 C-112.556875 74.360625 -113.11375 73.72125 -113.6875 73.0625 C-116.82077433 70.26795803 -118.83089696 70 -123 70 C-132.32262894 73.9954124 -136.35463602 86.19447551 -140 95 C-141.41039574 98.64184328 -142.73521359 102.30523024 -144 106 C-144.21744873 106.61665527 -144.43489746 107.23331055 -144.65893555 107.86865234 C-147.38421224 115.76499006 -149.3929797 123.8508684 -151.48242188 131.93359375 C-151.92618164 133.61775391 -151.92618164 133.61775391 -152.37890625 135.3359375 C-152.6426001 136.35220215 -152.90629395 137.3684668 -153.17797852 138.41552734 C-154 141 -154 141 -156 144 C-158.43579663 144.792508 -160.76223575 145.43655243 -163.25 146 C-171.80604803 147.85117429 -171.80604803 147.85117429 -178.6875 152.91796875 C-190.79381046 173.85179725 -196.18102932 199.21325697 -199 223 C-198.01 223.33 -197.02 223.66 -196 224 C-197.32 224 -198.64 224 -200 224 C-200.7969581 234.328021 -201.20942537 244.57575347 -201.25 254.9375 C-201.27081088 256.29492222 -201.29164417 257.6523441 -201.3125 259.00976562 C-201.40449347 270.63803847 -201.40449347 270.63803847 -195.8125 280.5 C-195.214375 280.995 -194.61625 281.49 -194 282 C-208.93827027 282.7682539 -224.39052818 281.80473591 -238 275 C-238.99 280.28 -239.98 285.56 -241 291 C-241.33 291 -241.66 291 -242 291 C-242.21824777 284.9981863 -241.5056904 279.80766296 -240 274 C-240.86109375 273.74476563 -241.7221875 273.48953125 -242.609375 273.2265625 C-264.01753831 265.48213476 -281.32988947 246.39445714 -290.875 226.25 C-303.69879388 196.06340616 -297.77413485 164.52306596 -286 135 C-282.34702039 126.4953664 -278.24769157 118.22079061 -274 110 C-273.56929199 109.16210938 -273.13858398 108.32421875 -272.69482422 107.4609375 C-261.57338592 86.05691493 -247.31707556 66.07719839 -230.61376953 48.68115234 C-229.51868493 47.54034258 -228.42866635 46.39465238 -227.34326172 45.24462891 C-214.47619986 31.64188174 -200.52091352 21.64052623 -183.91357422 13.01171875 C-182.21594325 12.11417055 -180.55918453 11.14024665 -178.91015625 10.15625 C-175.05778625 8.62564393 -173.05612086 9.11770181 -169 10 C-167.11341534 10.3860725 -165.22668226 10.77142005 -163.33984375 11.15625 C-160.08137145 11.83885186 -156.8235222 12.52415435 -153.56665039 13.21435547 C-147.56161848 14.44137358 -142.05803468 15.19152755 -135.9375 15.125 C-132.22408227 15.30976957 -130.6283826 15.43650473 -127.84375 17.93359375 C-126.12718206 20.30090978 -124.6141603 22.72044918 -123.12695312 25.23583984 C-120.93537199 28.66659489 -118.27992805 31.74329588 -115.6875 34.875 C-115.13610352 35.54926025 -114.58470703 36.22352051 -114.01660156 36.91821289 C-108.75459737 43.34366372 -103.39497053 49.68604652 -98 56 C-94.31502988 54.77167663 -93.50049192 53.41383683 -91.125 50.375 C-87.35618921 45.64864119 -83.47922271 41.05041131 -79.5 36.5 C-70.53078784 26.66245342 -70.53078784 26.66245342 -62.74926758 15.94702148 C-60.39530778 13.3269476 -58.65350052 13.16929703 -55.20703125 12.578125 C-54.02987549 12.36115967 -52.85271973 12.14419434 -51.63989258 11.9206543 C-50.37685303 11.69933838 -49.11381348 11.47802246 -47.8125 11.25 C-33.83724953 8.60423834 -13.05998282 -3.23863472 0 0 Z " fill="#A15346" transform="translate(720,506)"/>
<path d="M0 0 C12.21393002 9.07272777 21.32975495 19.84246356 26.85546875 34.12109375 C27.28859375 35.21421875 27.72171875 36.30734375 28.16796875 37.43359375 C28.93213525 40.42079008 28.90207434 43.0493618 28.85546875 46.12109375 C30.32943393 44.96989467 31.80313026 43.81835006 33.27563477 42.6652832 C34.54465034 41.67164941 35.81468288 40.67931316 37.08569336 39.68823242 C40.12591161 37.3078176 43.13526561 34.90989551 46.05859375 32.38671875 C47.0021875 31.5771875 47.94578125 30.76765625 48.91796875 29.93359375 C49.75457031 29.19753906 50.59117187 28.46148437 51.453125 27.703125 C54.1927939 25.8989528 55.64099088 25.77156942 58.85546875 26.12109375 C59.18546875 27.77109375 59.51546875 29.42109375 59.85546875 31.12109375 C54.10439105 35.94330323 48.34929351 40.75463743 42.48046875 45.43359375 C41.67996094 46.08714844 40.87945313 46.74070312 40.0546875 47.4140625 C37.85546875 49.12109375 37.85546875 49.12109375 35.9375 50.234375 C33.96601555 51.32980525 33.96601555 51.32980525 31.85546875 54.12109375 C31.30304898 57.55334117 31.15792609 60.90524206 31.03515625 64.37890625 C30.23495429 81.04398178 22.18142134 96.16918178 10.85546875 108.12109375 C10.18128906 108.83652344 9.50710938 109.55195313 8.8125 110.2890625 C-6.58837362 125.22762097 -25.62564282 128.66575198 -46.23828125 128.390625 C-63.07595898 127.85387114 -77.52149617 118.86978326 -89.14453125 107.12109375 C-89.76714844 106.53199219 -90.38976562 105.94289063 -91.03125 105.3359375 C-101.70463428 94.42270188 -108.32967159 76.74489047 -108.39453125 61.74609375 C-108.33185522 59.87028961 -108.25656803 57.99459774 -108.14453125 56.12109375 C-109.03269531 55.83363281 -109.92085937 55.54617188 -110.8359375 55.25 C-113.65062274 54.28961743 -116.34866978 53.22370569 -119.08203125 52.05859375 C-123.16580424 50.42629816 -126.72112458 49.42615628 -131.14453125 49.12109375 C-132.0159375 49.05792969 -132.88734375 48.99476563 -133.78515625 48.9296875 C-141.82341499 48.60352779 -148.66732507 50.21760719 -156.14453125 53.12109375 C-157.24796875 53.54261719 -158.35140625 53.96414063 -159.48828125 54.3984375 C-162.39090636 55.85391423 -162.39090636 55.85391423 -162.80859375 58.73046875 C-162.79570313 59.766875 -162.7828125 60.80328125 -162.76953125 61.87109375 C-163.44365665 80.29718805 -171.02087699 96.33801875 -184.14453125 109.12109375 C-184.80710937 109.81589844 -185.4696875 110.51070313 -186.15234375 111.2265625 C-198.33673746 123.20247799 -216.07302987 128.92798138 -232.83203125 129.55859375 C-251.52826286 129.39182855 -268.45894588 121.19160109 -281.8671875 108.45703125 C-291.80993891 98.2584629 -297.61795578 86.89757202 -301.14453125 73.12109375 C-301.33917969 72.51523437 -301.53382813 71.909375 -301.734375 71.28515625 C-302.14453125 69.12109375 -302.14453125 69.12109375 -302.00390625 65.8359375 C-301.66690102 58.73918804 -301.66690102 58.73918804 -304.39892578 52.39697266 C-307.92584973 48.78405306 -311.97952508 45.94861931 -316.14453125 43.12109375 C-317.4822603 42.1269817 -318.81790993 41.12998108 -320.14453125 40.12109375 C-319.81453125 38.47109375 -319.48453125 36.82109375 -319.14453125 35.12109375 C-317.65953125 34.62609375 -317.65953125 34.62609375 -316.14453125 34.12109375 C-314.3828125 35.125 -314.3828125 35.125 -312.45703125 36.68359375 C-311.76222656 37.23402344 -311.06742187 37.78445313 -310.3515625 38.3515625 C-309.25908203 39.22748047 -309.25908203 39.22748047 -308.14453125 40.12109375 C-306.64850287 41.25136986 -305.14868878 42.37665857 -303.64453125 43.49609375 C-302.47786458 44.37109375 -301.31119792 45.24609375 -300.14453125 46.12109375 C-300.19609375 45.1053125 -300.24765625 44.08953125 -300.30078125 43.04296875 C-299.86790212 32.17770256 -292.76693434 22.28872423 -286.14453125 14.12109375 C-285.59023438 13.40308594 -285.0359375 12.68507813 -284.46484375 11.9453125 C-275.01608033 0.30389346 -259.48603211 -9.09549171 -244.46484375 -10.70898438 C-239.69381381 -11.05837798 -234.92657279 -11.10523278 -230.14453125 -11.12890625 C-229.10296875 -11.14953125 -228.06140625 -11.17015625 -226.98828125 -11.19140625 C-220.68553869 -11.22323828 -215.8296073 -10.59739805 -210.14453125 -7.87890625 C-209.50563965 -7.59789062 -208.86674805 -7.316875 -208.20849609 -7.02734375 C-188.32978071 1.85389733 -174.14284249 15.6866004 -166.14453125 36.12109375 C-164.87904303 40.17232973 -164.14453125 43.84329569 -164.14453125 48.12109375 C-163.45488281 47.78335938 -162.76523437 47.445625 -162.0546875 47.09765625 C-147.35320034 40.11999568 -132.81260437 38.91293036 -117.14453125 44.12109375 C-113.76797433 45.36227871 -110.44224076 46.6838177 -107.14453125 48.12109375 C-106.98984375 46.69796875 -106.98984375 46.69796875 -106.83203125 45.24609375 C-104.14725615 27.74275481 -93.56725943 11.87502901 -79.36962891 1.4140625 C-73.30823875 -2.84404183 -67.07089033 -6.27001177 -60.14453125 -8.87890625 C-59.34402344 -9.19730469 -58.54351563 -9.51570313 -57.71875 -9.84375 C-38.35971549 -16.3770478 -16.54552107 -11.09325811 0 0 Z " fill="#FDC7A3" transform="translate(746.14453125,336.87890625)"/>
<path d="M0 0 C2.4375 1.4375 2.4375 1.4375 4 3 C4 3.66 4 4.32 4 5 C4.66 5 5.32 5 6 5 C6.28875 4.38125 6.5775 3.7625 6.875 3.125 C8 1 8 1 10 -1 C13.97091013 -1.13460712 16.54226038 -1.04666337 19.80078125 1.29296875 C29.59936135 11.49700734 34.28901259 26.81080018 39.6875 39.625 C39.96354065 40.27904816 40.2395813 40.93309631 40.52398682 41.60696411 C51 66.51078368 51 66.51078368 51 73 C51.89525391 73.12955078 51.89525391 73.12955078 52.80859375 73.26171875 C55.89079593 73.76091643 58.93911034 74.38310263 62 75 C63.0199707 75.16218018 63.0199707 75.16218018 64.06054688 75.32763672 C76.55805476 77.37406153 76.55805476 77.37406153 80.47753906 81.58886719 C83.4909376 86.03003704 85.31104152 90.93552366 87 96 C87.61875 97.77503906 87.61875 97.77503906 88.25 99.5859375 C89.25773653 102.70547485 90.1443861 105.83592286 91 109 C91.47575489 110.52190407 91.9547982 112.042785 92.4375 113.5625 C96.78107891 128.31157563 99.83670998 142.6515167 101 158 C91.04568939 157.36133848 81.61671753 155.47806084 72.58984375 151.15234375 C69.89709351 149.95421205 67.15757124 148.96639699 64.37963867 147.98535156 C54.35380421 144.4188211 44.81096839 139.92004222 36.4375 133.25 C33.38531863 130.91051073 30.253712 130.13015842 26.5625 129.125 C18.8701688 126.93224352 14.11017001 123.45300548 9.9375 116.625 C8.14841418 113.60719341 8.14841418 113.60719341 4.25 113.125 C3.1775 113.08375 2.105 113.0425 1 113 C0.68289063 113.59167969 0.36578125 114.18335938 0.0390625 114.79296875 C-4.37839681 122.27336256 -9.48478183 125.04740723 -17.515625 127.890625 C-21.23485076 129.55141135 -23.95732093 132.17804189 -27.01171875 134.83203125 C-34.85328021 140.52100721 -43.90173223 143.58965593 -53 146.6875 C-54.11117187 147.07744141 -55.22234375 147.46738281 -56.3671875 147.86914062 C-65.16668899 150.89720437 -73.63558382 153.40714853 -83 153 C-83.19100129 147.13244037 -82.80624415 141.72922 -81.4375 136 C-81.1751355 134.87198975 -81.1751355 134.87198975 -80.9074707 133.72119141 C-70.32513196 89.2958823 -70.32513196 89.2958823 -60 79 C-57.40548184 77.81272593 -55.20024938 76.94945156 -52.5 76.1875 C-51.84902344 75.98447266 -51.19804688 75.78144531 -50.52734375 75.57226562 C-47.05172222 74.50851479 -43.57726266 73.63977967 -40 73 C-36.24380523 60.38413024 -36.24380523 60.38413024 -32.7734375 47.6875 C-21.50271248 8.52457669 -21.50271248 8.52457669 -9 0 C-5.84876177 -1.57561912 -3.37430208 -0.69813146 0 0 Z " fill="#FDC8A3" transform="translate(604,576)"/>
<path d="M0 0 C0.66 0 1.32 0 2 0 C0.19657247 18.89761823 0.19657247 18.89761823 -1 27.625 C-2.93522854 41.77635872 -4.25880081 55.87021437 -5.1796875 70.12353516 C-5.61533618 76.76131303 -6.10409568 83.38450983 -6.72265625 90.0078125 C-8.64929268 110.84849388 -9.65940766 131.6576632 -10.35351562 152.57617188 C-10.38966476 153.66534912 -10.4258139 154.75452637 -10.46305847 155.87670898 C-10.53419351 158.02073854 -10.60492729 160.16478145 -10.67524719 162.30883789 C-10.8649946 167.86720755 -11.1291153 173.40537591 -11.51953125 178.953125 C-12.28610217 190.28594369 -12.36453881 201.64591578 -12.5625 213 C-12.60580026 215.33594344 -12.64941773 217.67188103 -12.69335938 220.0078125 C-12.7992259 225.67181275 -12.90119248 231.33587244 -13 237 C-18.18513512 237.13268977 -22.55293374 236.85941806 -27.60546875 235.53125 C-28.82645264 235.21140137 -30.04743652 234.89155273 -31.30541992 234.56201172 C-32.59979281 234.20927573 -33.89381344 233.85524491 -35.1875 233.5 C-35.84763092 233.32148499 -36.50776184 233.14296997 -37.18789673 232.95904541 C-80.08522465 221.31508694 -80.08522465 221.31508694 -87 210 C-88.46129615 207.0774077 -88.17711786 204.16538556 -88.16796875 200.9609375 C-88.16613083 200.18326019 -88.16429291 199.40558289 -88.16239929 198.6043396 C-88.03908933 185.37746163 -87.19583738 172.16178058 -86.4450798 158.95836258 C-86.31118944 156.60193452 -86.17901017 154.24541427 -86.04690552 151.8888855 C-84.54935097 125.34240235 -82.35435673 98.91968985 -79.56835938 72.47509766 C-78.77901934 64.94361665 -78.07715361 57.40418955 -77.38235474 49.86349487 C-77.19369103 47.81715111 -77.00333796 45.77097274 -76.81225586 43.72485352 C-76.54067916 40.81664473 -76.26992774 37.90836219 -76 35 C-75.67 35 -75.34 35 -75 35 C-75 37.64 -75 40.28 -75 43 C-49.38604648 42.32683434 -29.28216406 32.93633626 -11.390625 14.59375 C-9.91263415 13.03449897 -9.91263415 13.03449897 -9 11 C-8.34 11 -7.68 11 -7 11 C-6.773125 10.484375 -6.54625 9.96875 -6.3125 9.4375 C-4.51782382 6.10452995 -2.50034985 2.85296329 0 0 Z " fill="#A15346" transform="translate(549,801)"/>
<path d="M0 0 C6.64192189 0.91353295 11.98988365 1.99494183 18 5 C21.96729703 5.84905936 25.98894176 6.39584731 30 7 C31.68150146 7.26441895 31.68150146 7.26441895 33.39697266 7.53417969 C56.23463162 10.94352701 79.02891567 11.38883344 102.07217026 11.37606049 C104.40982529 11.37501241 106.74746008 11.37732969 109.08511353 11.37994385 C133.44430314 11.38964127 157.20484541 10.1150592 181.25 6 C182.8345038 5.73618745 184.41913975 5.47316739 186.00390625 5.2109375 C194.01558778 3.8787873 202.01554562 2.48751479 210 1 C209.9175 1.928125 209.835 2.85625 209.75 3.8125 C209.90922605 15.18578922 216.79915514 23.1614898 223.70947266 31.44189453 C225.382705 33.46205511 226.9831314 35.53087423 228.5625 37.625 C228.99691406 38.19476562 229.43132812 38.76453125 229.87890625 39.3515625 C232.66726388 43.45151693 233.3170966 46.42885626 233.375 51.4375 C233.40335938 52.54996094 233.43171875 53.66242188 233.4609375 54.80859375 C232.90529254 58.65572876 231.69330291 60.25233685 229 63 C225.5725859 64.84553067 222.86494842 65.2208542 219 65 C218.814375 65.598125 218.62875 66.19625 218.4375 66.8125 C216.32249517 70.0309856 213.599764 71.04899852 210 72 C207.17839077 72.30686993 204.38729536 72.49746098 201.55078125 72.59375 C198.93927279 72.7919848 198.93927279 72.7919848 197.1340332 74.51147461 C194.58889561 76.28675248 193.36712994 76.33095541 190.3046875 76.22265625 C189.42425781 76.20396484 188.54382813 76.18527344 187.63671875 76.16601562 C186.72535156 76.13185547 185.81398438 76.09769531 184.875 76.0625 C183.06017109 76.00268446 181.24503173 75.95147466 179.4296875 75.91015625 C178.22675049 75.86580444 178.22675049 75.86580444 176.99951172 75.82055664 C174.76707416 75.80554445 174.76707416 75.80554445 173 78 C165.81690741 80.52556223 156.48011796 80.17208874 149.625 77 C137.27427564 69.77178919 130.1663692 57.16761352 126.34765625 43.69921875 C124.16600217 33.71456832 124.36923477 23.15395613 124 13 C110.47 13 96.94 13 83 13 C83.15707536 21.10676665 83.15707536 21.10676665 83.36035156 29.21240234 C83.44716979 38.17008336 82.12227119 45.74697582 76.0625 52.625 C71.99412654 56.33058857 67.32100848 59.03293816 62.59765625 61.8203125 C59.41799457 63.70941075 56.38341463 65.76708695 53.34375 67.87207031 C40.8756934 76.47579585 28.48021647 81.71322554 13 80 C12.05382812 79.49984375 11.10765625 78.9996875 10.1328125 78.484375 C6.28957129 76.66338789 3.07562122 76.76817248 -1.0625 77 C-6.13524061 77.28260393 -9.87086038 77.34838613 -14 74 C-14 73.34 -14 72.68 -14 72 C-14.81984375 71.97421875 -15.6396875 71.9484375 -16.484375 71.921875 C-17.56203125 71.86515625 -18.6396875 71.8084375 -19.75 71.75 C-20.81734375 71.70359375 -21.8846875 71.6571875 -22.984375 71.609375 C-26.54938871 70.88898363 -27.79747746 69.84403396 -30 67 C-30 66.34 -30 65.68 -30 65 C-31.051875 64.938125 -32.10375 64.87625 -33.1875 64.8125 C-37.66337256 63.85862552 -39.12282867 62.46953013 -42 59 C-44.20587613 54.58824775 -43.28020757 49.85537047 -41.8125 45.375 C-38.28543226 38.80735663 -33.81546385 34.81868427 -27.8125 30.625 C-26.4767204 29.66826214 -25.14208783 28.70992083 -23.80859375 27.75 C-23.16003418 27.28464844 -22.51147461 26.81929687 -21.84326172 26.33984375 C-15.86679392 21.9956245 -10.01475229 17.4445882 -5 12 C-4.5359375 11.52949219 -4.071875 11.05898437 -3.59375 10.57421875 C-1.11549977 7.91009975 -0.02140107 6.4995622 0.13671875 2.80859375 C0.09160156 1.88175781 0.04648437 0.95492188 0 0 Z " fill="#FDC7A2" transform="translate(534,1038)"/>
<path d="M0 0 C12.97364918 9.51772146 22.20068558 23.01973952 25.61328125 38.84375 C26.98175295 50.01269075 26.69995648 61.31786758 23 72 C22.6596875 73.00546875 22.319375 74.0109375 21.96875 75.046875 C19.16931121 82.49943502 15.31767902 88.12052611 10 94 C9.34386719 94.77214844 8.68773437 95.54429687 8.01171875 96.33984375 C-2.25213431 107.64747848 -16.56776173 113.55334379 -31.625 114.34375 C-43.0094544 114.73046599 -52.90035869 114.7521136 -63 109 C-63.57927246 108.67290039 -64.15854492 108.34580078 -64.75537109 108.00878906 C-81.44181843 98.41705449 -92.63417858 84.84683521 -98.12109375 66.1875 C-99.11756137 61.99285992 -99.30828888 57.98556364 -99.25 53.6875 C-99.24178223 52.94330811 -99.23356445 52.19911621 -99.22509766 51.43237305 C-98.86546836 33.59205301 -92.21923046 18.23545146 -79.5390625 5.53515625 C-56.61228551 -14.60322894 -25.50701864 -16.96343897 0 0 Z " fill="#FDC8A3" transform="translate(550,344)"/>
<path d="M0 0 C12.21393002 9.07272777 21.32975495 19.84246356 26.85546875 34.12109375 C27.28859375 35.21421875 27.72171875 36.30734375 28.16796875 37.43359375 C28.93213525 40.42079008 28.90207434 43.0493618 28.85546875 46.12109375 C30.32943393 44.96989467 31.80313026 43.81835006 33.27563477 42.6652832 C34.54465034 41.67164941 35.81468288 40.67931316 37.08569336 39.68823242 C40.12591161 37.3078176 43.13526561 34.90989551 46.05859375 32.38671875 C47.0021875 31.5771875 47.94578125 30.76765625 48.91796875 29.93359375 C49.75457031 29.19753906 50.59117187 28.46148437 51.453125 27.703125 C54.1927939 25.8989528 55.64099088 25.77156942 58.85546875 26.12109375 C59.18546875 27.77109375 59.51546875 29.42109375 59.85546875 31.12109375 C54.10439105 35.94330323 48.34929351 40.75463743 42.48046875 45.43359375 C41.67996094 46.08714844 40.87945313 46.74070312 40.0546875 47.4140625 C37.85546875 49.12109375 37.85546875 49.12109375 35.9375 50.234375 C33.96601555 51.32980525 33.96601555 51.32980525 31.85546875 54.12109375 C31.30304898 57.55334117 31.15792609 60.90524206 31.03515625 64.37890625 C30.23495429 81.04398178 22.18142134 96.16918178 10.85546875 108.12109375 C10.18128906 108.83652344 9.50710938 109.55195313 8.8125 110.2890625 C-6.58837362 125.22762097 -25.62564282 128.66575198 -46.23828125 128.390625 C-63.07595898 127.85387114 -77.52149617 118.86978326 -89.14453125 107.12109375 C-89.76714844 106.53199219 -90.38976562 105.94289063 -91.03125 105.3359375 C-101.70463428 94.42270188 -108.32967159 76.74489047 -108.39453125 61.74609375 C-108.33185522 59.87028961 -108.25656803 57.99459774 -108.14453125 56.12109375 C-109.03269531 55.83363281 -109.92085937 55.54617188 -110.8359375 55.25 C-113.65062274 54.28961743 -116.34866978 53.22370569 -119.08203125 52.05859375 C-123.16580424 50.42629816 -126.72112458 49.42615628 -131.14453125 49.12109375 C-132.0159375 49.05792969 -132.88734375 48.99476563 -133.78515625 48.9296875 C-141.82341499 48.60352779 -148.66732507 50.21760719 -156.14453125 53.12109375 C-157.24796875 53.54261719 -158.35140625 53.96414063 -159.48828125 54.3984375 C-162.39090636 55.85391423 -162.39090636 55.85391423 -162.80859375 58.73046875 C-162.79570313 59.766875 -162.7828125 60.80328125 -162.76953125 61.87109375 C-163.44365665 80.29718805 -171.02087699 96.33801875 -184.14453125 109.12109375 C-184.80710937 109.81589844 -185.4696875 110.51070313 -186.15234375 111.2265625 C-198.33673746 123.20247799 -216.07302987 128.92798138 -232.83203125 129.55859375 C-251.52826286 129.39182855 -268.45894588 121.19160109 -281.8671875 108.45703125 C-291.80993891 98.2584629 -297.61795578 86.89757202 -301.14453125 73.12109375 C-301.33917969 72.51523437 -301.53382813 71.909375 -301.734375 71.28515625 C-302.14453125 69.12109375 -302.14453125 69.12109375 -302.00390625 65.8359375 C-301.66690102 58.73918804 -301.66690102 58.73918804 -304.39892578 52.39697266 C-307.92584973 48.78405306 -311.97952508 45.94861931 -316.14453125 43.12109375 C-317.4822603 42.1269817 -318.81790993 41.12998108 -320.14453125 40.12109375 C-319.81453125 38.47109375 -319.48453125 36.82109375 -319.14453125 35.12109375 C-317.65953125 34.62609375 -317.65953125 34.62609375 -316.14453125 34.12109375 C-314.3828125 35.125 -314.3828125 35.125 -312.45703125 36.68359375 C-311.76222656 37.23402344 -311.06742187 37.78445313 -310.3515625 38.3515625 C-309.25908203 39.22748047 -309.25908203 39.22748047 -308.14453125 40.12109375 C-306.64850287 41.25136986 -305.14868878 42.37665857 -303.64453125 43.49609375 C-302.47786458 44.37109375 -301.31119792 45.24609375 -300.14453125 46.12109375 C-300.19609375 45.1053125 -300.24765625 44.08953125 -300.30078125 43.04296875 C-299.86790212 32.17770256 -292.76693434 22.28872423 -286.14453125 14.12109375 C-285.59023438 13.40308594 -285.0359375 12.68507813 -284.46484375 11.9453125 C-275.01608033 0.30389346 -259.48603211 -9.09549171 -244.46484375 -10.70898438 C-239.69381381 -11.05837798 -234.92657279 -11.10523278 -230.14453125 -11.12890625 C-229.10296875 -11.14953125 -228.06140625 -11.17015625 -226.98828125 -11.19140625 C-220.68553869 -11.22323828 -215.8296073 -10.59739805 -210.14453125 -7.87890625 C-209.50563965 -7.59789062 -208.86674805 -7.316875 -208.20849609 -7.02734375 C-188.32978071 1.85389733 -174.14284249 15.6866004 -166.14453125 36.12109375 C-164.87904303 40.17232973 -164.14453125 43.84329569 -164.14453125 48.12109375 C-163.45488281 47.78335938 -162.76523437 47.445625 -162.0546875 47.09765625 C-147.35320034 40.11999568 -132.81260437 38.91293036 -117.14453125 44.12109375 C-113.76797433 45.36227871 -110.44224076 46.6838177 -107.14453125 48.12109375 C-106.98984375 46.69796875 -106.98984375 46.69796875 -106.83203125 45.24609375 C-104.14725615 27.74275481 -93.56725943 11.87502901 -79.36962891 1.4140625 C-73.30823875 -2.84404183 -67.07089033 -6.27001177 -60.14453125 -8.87890625 C-59.34402344 -9.19730469 -58.54351563 -9.51570313 -57.71875 -9.84375 C-38.35971549 -16.3770478 -16.54552107 -11.09325811 0 0 Z M-280.14453125 17.12109375 C-292.52053977 32.10814897 -296.73541182 50.02608314 -295.14453125 69.12109375 C-292.04581018 86.01472366 -282.09006823 101.14565055 -268.04174805 110.90356445 C-265.14662626 112.79043884 -262.17770663 114.46232597 -259.14453125 116.12109375 C-258.17515625 116.67023438 -257.20578125 117.219375 -256.20703125 117.78515625 C-243.94730998 123.62156611 -225.72178189 123.35211561 -212.921875 119.2734375 C-195.60163914 112.08712304 -182.04521322 101.27964917 -174.6484375 83.53125 C-168.67474217 67.40396487 -167.76977791 50.18124204 -174.3984375 34.07421875 C-182.61128331 16.44009749 -196.28468061 5.04522087 -214.07421875 -2.046875 C-238.14242682 -9.30824656 -263.21708242 -0.77426639 -280.14453125 17.12109375 Z M-87.046875 18.4296875 C-98.6062885 34.23851341 -102.73631376 49.76110687 -100.86328125 69.01171875 C-98.01405299 85.99750258 -87.79733637 101.28376952 -74.0703125 111.3828125 C-62.45218401 118.96472747 -52.61584806 121.44210951 -38.95703125 121.55859375 C-37.4424231 121.5740625 -37.4424231 121.5740625 -35.8972168 121.58984375 C-20.42275607 121.40747839 -6.32546495 114.71452354 4.85546875 104.12109375 C11.42595636 97.20983531 16.17764528 89.90762641 19.85546875 81.12109375 C20.47615234 79.66316406 20.47615234 79.66316406 21.109375 78.17578125 C26.15709395 64.42206619 25.53663947 48.55100879 19.85546875 35.12109375 C19.31212891 33.80431641 19.31212891 33.80431641 18.7578125 32.4609375 C11.67847693 16.93439474 -1.73889819 5.05713789 -17.47265625 -1.203125 C-43.04108324 -9.22845726 -69.74613086 -2.56567141 -87.046875 18.4296875 Z " fill="#B9773C" transform="translate(746.14453125,336.87890625)"/>
<path d="M0 0 C2.83068674 1.31091235 5.50099906 2.85531189 8.1875 4.4375 C8.89841797 4.84548828 9.60933594 5.25347656 10.34179688 5.67382812 C13.29233946 7.37531693 16.16427547 9.10951698 19 11 C19 12.32 19 13.64 19 15 C11.78031255 21.22484863 1.26633772 26.60681228 -7.9375 29.0625 C-12.26522127 31.80044611 -12.69564726 34.91934556 -14.3046875 39.671875 C-19.76075811 54.58082157 -29.02663016 68.9448807 -38 82 C-38.38188477 82.56299805 -38.76376953 83.12599609 -39.15722656 83.70605469 C-44.37925578 91.37897906 -49.95397912 98.5455029 -56.24145508 105.3828125 C-59.56197329 109.05498417 -59.56197329 109.05498417 -60 114 C-57.15989612 120.56341627 -52.1629357 127.50196246 -45.66796875 130.578125 C-42.51798177 131.23104402 -39.46482539 131.65640097 -36.25439453 131.85253906 C-33.70861022 132.01905993 -31.18713264 132.29735185 -28.65234375 132.5859375 C-20.74770642 133.45268009 -12.95645598 134.11985391 -5 134 C-0.09878841 124.02310003 3.30830462 114.73237729 5 103.75 C5.73881238 99.06484833 6.92741877 95.298687 9 91 C9.81646175 88.98076405 10.62859068 86.9597733 11.4375 84.9375 C13.26151612 80.57191188 14.9632116 76.64414608 18 73 C18.99 73 19.98 73 21 73 C20.39720947 77.17033423 19.42682552 80.96171457 18.078125 84.94921875 C15.81516995 92.16264372 14.68445741 99.32436846 13.75 106.8125 C13.66528442 107.46454407 13.58056885 108.11658813 13.49328613 108.78839111 C12.22556034 118.57591818 11.43284216 128.13775538 12 138 C12.53367187 137.83886719 13.06734375 137.67773438 13.6171875 137.51171875 C27.99977398 134.42299936 40.73649477 139.01112068 53 146 C53.66 146.66 54.32 147.32 55 148 C54.625 150.125 54.625 150.125 54 152 C50.35726192 151.37747054 47.21268011 150.31414434 43.7890625 148.9453125 C35.68814723 146.20037427 27.81123387 146.63127076 19.375 146.875 C1.75492705 147.30033761 1.75492705 147.30033761 -5.68798828 145.49853516 C-10.11314583 144.54434596 -14.61370535 144.4439669 -19.125 144.25 C-20.06214844 144.19457031 -20.99929688 144.13914062 -21.96484375 144.08203125 C-27.71306778 143.8167286 -32.5486576 144.06118538 -38 146 C-38.33 146.99 -38.66 147.98 -39 149 C-44.36507756 148.31781795 -49.55479939 147.25856493 -54.8125 146 C-55.9562207 145.73316406 -55.9562207 145.73316406 -57.12304688 145.4609375 C-62.74017857 144.12991071 -62.74017857 144.12991071 -65 143 C-66.04097681 140.19531106 -66.98347459 137.41458733 -67.875 134.5625 C-69.80022185 128.5289498 -71.81740954 122.68138438 -74.53125 116.9453125 C-75 115 -75 115 -74.1796875 112.875 C-70.67453419 107.3038954 -70.67453419 107.3038954 -68.14453125 106.1640625 C-63.32344795 103.5471539 -60.28577041 98.29332801 -57 94 C-56.5344873 93.39687988 -56.06897461 92.79375977 -55.58935547 92.17236328 C-48.13320302 82.43002108 -41.50194119 72.21942998 -35.125 61.75 C-34.77050781 61.17097931 -34.41601562 60.59195862 -34.05078125 59.99539185 C-28.88539072 51.53187426 -24.31003002 42.92417819 -20 34 C-21.03181396 34.39888428 -22.06362793 34.79776855 -23.12670898 35.20874023 C-27.40205538 36.85153579 -31.6943317 38.43878098 -36 40 C-37.07483643 40.39227783 -37.07483643 40.39227783 -38.17138672 40.79248047 C-54.18288784 46.53203844 -72.88891516 51.850551 -90 51 C-88.59160505 46.70554982 -86.54145224 44.12953521 -83.4375 40.875 C-74.84538041 31.67410569 -74.84538041 31.67410569 -67.42089844 21.54394531 C-63.78347989 16.25961114 -61.07030889 13.47196658 -54.71875 11.9921875 C-52.3183799 11.58360323 -49.91135671 11.21275221 -47.5 10.875 C-37.46748032 9.15639853 -27.93930862 7.01815108 -18.3125 3.6875 C-17.29800781 3.3373584 -16.28351563 2.9872168 -15.23828125 2.62646484 C-4.56088399 -1.13101506 -4.56088399 -1.13101506 0 0 Z " fill="#8E463A" transform="translate(720,506)"/>
<path d="M0 0 C0.99 1.485 0.99 1.485 2 3 C6.73030214 9.71544093 11.68171404 16.14975749 17.01953125 22.39453125 C20.79063874 27.35573183 22.43011433 31.30683601 22.4375 37.5625 C22.45683594 38.65691406 22.47617187 39.75132813 22.49609375 40.87890625 C21.89544813 44.65777121 20.6454476 46.28647103 18 49 C14.5725859 50.84553067 11.86494842 51.2208542 8 51 C7.7215625 51.8971875 7.7215625 51.8971875 7.4375 52.8125 C5.32249517 56.0309856 2.599764 57.04899852 -1 58 C-3.82160923 58.30686993 -6.61270464 58.49746098 -9.44921875 58.59375 C-12.06072721 58.7919848 -12.06072721 58.7919848 -13.8659668 60.51147461 C-16.41110439 62.28675248 -17.63287006 62.33095541 -20.6953125 62.22265625 C-21.57574219 62.20396484 -22.45617187 62.18527344 -23.36328125 62.16601562 C-24.27464844 62.13185547 -25.18601562 62.09769531 -26.125 62.0625 C-27.93982891 62.00268446 -29.75496827 61.95147466 -31.5703125 61.91015625 C-32.37227051 61.88058838 -33.17422852 61.85102051 -34.00048828 61.82055664 C-36.23292584 61.80554445 -36.23292584 61.80554445 -38 64 C-45.18309259 66.52556223 -54.51988204 66.17208874 -61.375 63 C-72.6739497 56.387336 -80.58619555 44.55262256 -84 32 C-84 26.63574329 -82.41428253 22.13199958 -79 18 C-72.84260114 13.15890968 -66.64791198 12.85986455 -59.12109375 13.11328125 C-39.03991093 13.58842374 -21.8030788 13.37376937 -3.6574707 3.76074219 C-2 3 -2 3 0 3 C0 2.01 0 1.02 0 0 Z " fill="#FDC7A2" transform="translate(745,1052)"/>
<path d="M0 0 C7.11554698 5.0029376 11.83437948 11.4651165 13.9453125 19.87890625 C15.59560803 30.1824905 15.02200202 40.90264019 11.39453125 50.68359375 C11.06582031 51.64523437 10.73710938 52.606875 10.3984375 53.59765625 C5.13314482 67.69916675 -4.42484657 78.9485471 -18.04296875 85.49609375 C-29.60040329 90.31440449 -39.46341558 92.40024661 -51.60546875 88.68359375 C-51.41436523 88.06129883 -51.22326172 87.43900391 -51.02636719 86.79785156 C-44.53699549 65.51802259 -40.22422672 45.36396634 -38.83911133 23.13696289 C-38.59759054 20.60086847 -38.14663138 18.17149651 -37.60546875 15.68359375 C-38.92546875 15.02359375 -40.24546875 14.36359375 -41.60546875 13.68359375 C-40.61546875 13.68359375 -39.62546875 13.68359375 -38.60546875 13.68359375 C-38.46109375 12.83796875 -38.31671875 11.99234375 -38.16796875 11.12109375 C-35.21523773 4.62508551 -29.0336497 1.0920459 -22.66796875 -1.75390625 C-14.45504094 -4.67349419 -7.64452782 -4.24963515 0 0 Z " fill="#FDBC94" transform="translate(842.60546875,348.31640625)"/>
<path d="M0 0 C6.64192189 0.91353295 11.98988365 1.99494183 18 5 C21.96729703 5.84905936 25.98894176 6.39584731 30 7 C31.68150146 7.26441895 31.68150146 7.26441895 33.39697266 7.53417969 C56.23463162 10.94352701 79.02891567 11.38883344 102.07217026 11.37606049 C104.40982529 11.37501241 106.74746008 11.37732969 109.08511353 11.37994385 C133.44430314 11.38964127 157.20484541 10.1150592 181.25 6 C182.8345038 5.73618745 184.41913975 5.47316739 186.00390625 5.2109375 C194.01558778 3.8787873 202.01554562 2.48751479 210 1 C209.979375 1.969375 209.95875 2.93875 209.9375 3.9375 C209.92849192 8.33344515 210.44690406 12.64436949 211 17 C207.77085196 18.92049331 204.43378145 20.47780822 201 22 C200.39269043 22.27247559 199.78538086 22.54495117 199.15966797 22.82568359 C185.34666772 28.71335976 171.66635233 28.50287366 156.93432617 28.04223633 C143.68112416 27.52672955 143.68112416 27.52672955 132.0625 33.375 C130.08826625 35.88766114 128.95343394 37.96634655 128 41 C127.34 41 126.68 41 126 41 C124.83012413 35.23909867 124.66821324 29.48037278 124.4375 23.625 C124.293125 20.11875 124.14875 16.6125 124 13 C110.47 13 96.94 13 83 13 C83 19.93 83 26.86 83 34 C55.42331824 34.76601894 22.3086288 28.53908586 -1 13 C-1.25 9.9375 -1.25 9.9375 -1 7 C-0.67 6.67 -0.34 6.34 0 6 C0.04080783 4.00041636 0.04254356 1.99954746 0 0 Z " fill="#FCB487" transform="translate(534,1038)"/>
<path d="M0 0 C1.07701172 -0.03867187 1.07701172 -0.03867187 2.17578125 -0.078125 C5.99475472 0.42077667 8.39005095 1.18813801 11.6875 3.25 C13.19343982 6.45511465 13.71029802 9.70531324 14.25 13.1875 C14.42595703 14.09435547 14.60191406 15.00121094 14.78320312 15.93554688 C15.61128225 20.6050885 15.98660988 23.01828899 13.6875 27.25 C13.77083333 29.83333333 13.77083333 29.83333333 14.6875 32.25 C15.19611572 32.67176514 15.70473145 33.09353027 16.22875977 33.52807617 C18.37805479 36.06514359 17.96501189 37.96308918 17.83984375 41.23828125 C17.81212891 42.41970703 17.78441406 43.60113281 17.75585938 44.81835938 C17.66902397 47.30288877 17.57791816 49.7872728 17.48242188 52.27148438 C17.3321372 59.01230204 17.31876618 62.83116685 21.6875 68.25 C22.6408317 70.84216252 23.22588405 73.49161715 23.8125 76.1875 C24.1264654 77.55104396 24.4415615 78.91432808 24.7578125 80.27734375 C24.90766602 80.93460449 25.05751953 81.59186523 25.21191406 82.26904297 C25.93797668 85.29330995 26.80851668 88.26690174 27.6875 91.25 C13.97081692 92.18997574 5.06741595 90.10950373 -5.6875 80.875 C-13.61647077 73.25001533 -18.01321692 65.36367497 -22.3125 55.25 C-22.67859375 54.43917969 -23.0446875 53.62835938 -23.421875 52.79296875 C-27.18671317 42.04336503 -26.75696365 27.48522806 -22.64453125 16.90625 C-19.2880358 10.21294529 -14.95503605 4.79268589 -8.3125 1.25 C-5.51523878 0.40165029 -2.91913184 0.06221951 0 0 Z " fill="#FDBC93" transform="translate(413.3125,345.75)"/>
<path d="M0 0 C1.88636382 0.3871501 3.77312248 0.77237869 5.66015625 1.15625 C8.91862855 1.83885186 12.1764778 2.52415435 15.43334961 3.21435547 C21.43838152 4.44137358 26.94196532 5.19152755 33.0625 5.125 C36.77591773 5.30976957 38.3716174 5.43650473 41.15625 7.93359375 C42.87281794 10.30090978 44.3858397 12.72044918 45.87304688 15.23583984 C48.06470487 18.66671521 50.72073886 21.74260079 53.3125 24.875 C53.86389648 25.55216064 54.41529297 26.22932129 54.98339844 26.92700195 C57.69941051 30.25463204 60.45258745 33.54092373 63.28125 36.7734375 C63.79260498 37.36141113 64.30395996 37.94938477 64.83081055 38.55517578 C65.79472782 39.65774848 66.76716412 40.75295045 67.74926758 41.83935547 C70.44438664 44.92223599 71 45.71133381 71 50 C69.13671875 52.65625 69.13671875 52.65625 66.6875 55.5 C63.39277312 59.33036069 63.39277312 59.33036069 60.33203125 63.34375 C59.67267578 64.16359375 59.67267578 64.16359375 59 65 C58.34 65 57.68 65 57 65 C55.375 63 55.375 63 54 61 C55.1357441 58.44457577 56.34872527 56.56922172 58.125 54.375 C60.2065481 52.24269401 60.2065481 52.24269401 60 50 C58.80117188 49.85304688 58.80117188 49.85304688 57.578125 49.703125 C56.47984375 49.55359375 55.3815625 49.4040625 54.25 49.25 C53.18265625 49.11078125 52.1153125 48.9715625 51.015625 48.828125 C45.50080713 47.85389621 40.26697797 45.85649386 35 44 C34.00919434 43.65146973 33.01838867 43.30293945 31.99755859 42.94384766 C-10.57026739 27.75358175 -10.57026739 27.75358175 -22 11 C-22.1484375 8.47265625 -22.1484375 8.47265625 -21 6 C-18.75073252 4.41405537 -16.82699817 3.28302788 -14.375 2.125 C-13.77042969 1.8053125 -13.16585937 1.485625 -12.54296875 1.15625 C-7.86915807 -1.13581067 -5.00210658 -1.12302702 0 0 Z " fill="#90483B" transform="translate(551,516)"/>
<path d="M0 0 C0.61875 0.268125 1.2375 0.53625 1.875 0.8125 C8.27903176 3.24603207 13.69081866 5.22171302 20.625 4.75 C26.24005097 4.58915219 30.52899777 5.97053683 35.625 8.125 C36.67421631 8.54990723 36.67421631 8.54990723 37.74462891 8.98339844 C41.05945868 10.48768926 42.76277553 11.50504174 44.35546875 14.828125 C44.56816406 15.87484375 44.78085937 16.9215625 45 18 C45.29261719 19.08539062 45.58523438 20.17078125 45.88671875 21.2890625 C46.15097656 22.38992188 46.41523437 23.49078125 46.6875 24.625 C46.95949219 25.73101563 47.23148438 26.83703125 47.51171875 27.9765625 C48.23921551 32.48122243 48.23921551 32.48122243 47 35 C45.1796875 36.01171875 45.1796875 36.01171875 42.875 36.6875 C42.12992188 36.91824219 41.38484375 37.14898438 40.6171875 37.38671875 C23.03206277 41.50741216 3.14826673 40.3938742 -14 35 C-15.07121094 34.69191406 -16.14242187 34.38382813 -17.24609375 34.06640625 C-19.51031064 33.41006599 -21.7552376 32.71870304 -24 32 C-23.29312755 29.07625524 -22.56088905 26.16313229 -21.8125 23.25 C-21.61591797 22.425 -21.41933594 21.6 -21.21679688 20.75 C-19.86303397 15.58487385 -18.7134608 12.92044401 -14 10 C-12.99582031 9.31679688 -11.99164062 8.63359375 -10.95703125 7.9296875 C-9.91933594 7.25164063 -8.88164063 6.57359375 -7.8125 5.875 C-3.68574448 3.20784193 -3.68574448 3.20784193 0 0 Z " fill="#A05245" transform="translate(598,719)"/>
<path d="M0 0 C4.97267323 0.28688499 8.76195543 1.20833514 13.3125 3.25 C19.62655623 6.04993496 26.06620895 7.70841523 32.76489258 9.29980469 C34.85763248 9.81092393 36.9312812 10.39899607 39 11 C42.74295712 18.48591424 41.18613312 29.37881378 41.18530273 37.62036133 C41.18749796 40.06023389 41.20573046 42.49965967 41.22460938 44.93945312 C41.22754276 46.51301931 41.22952792 48.08658761 41.23046875 49.66015625 C41.23765427 50.37808853 41.24483978 51.09602081 41.25224304 51.83570862 C41.22556088 57.82923852 40.73271837 64.72073796 36.75 69.5 C34 72 34 72 31.0625 72.6875 C26.25199081 71.60758977 23.51077449 69.15689188 20.7578125 65.2265625 C9.48871547 46.00280875 1.41358471 22.26395919 0 0 Z " fill="#793A2C" transform="translate(666,724)"/>
<path d="M0 0 C-0.47196601 7.15062148 -1.7804654 13.69997125 -3.8125 20.5625 C-4.06064453 21.44357422 -4.30878906 22.32464844 -4.56445312 23.23242188 C-6.25722 29.06880639 -8.40236279 34.51149615 -11 40 C-11.54140625 41.18464844 -12.0828125 42.36929688 -12.640625 43.58984375 C-16.75931406 52.15711687 -21.08203233 60.72135489 -29.1875 66.125 C-32.06281774 67.0195433 -34.02397643 67.48259842 -37 67 C-41.46582748 63.17123778 -42.80785022 58.37474733 -43.26806641 52.68701172 C-43.35094338 49.44715961 -43.376247 46.21645673 -43.33618164 42.97583008 C-43.31283622 40.96643885 -43.31734756 38.95678645 -43.32226562 36.94726562 C-43.27287189 27.79146381 -42.41684306 19.03876124 -41 10 C-40.40687012 9.87471924 -39.81374023 9.74943848 -39.20263672 9.62036133 C-28.45525242 7.32715614 -17.99824873 5.02401834 -7.77734375 0.91796875 C-4.97084298 -0.00963699 -2.92436779 -0.07211947 0 0 Z " fill="#79392C" transform="translate(561,720)"/>
<path d="M0 0 C1.67542976 0.28604898 3.34385343 0.61781233 5 1 C5.03963867 1.77077881 5.07927734 2.54155762 5.12011719 3.33569336 C5.31213934 6.8708637 5.5308627 10.40391096 5.75 13.9375 C5.811875 15.14986328 5.87375 16.36222656 5.9375 17.61132812 C6.5855437 28.6361142 6.5855437 28.6361142 12 38 C23.29471215 38.86635576 34.48411646 28.76440706 43 22 C46.02342266 19.40529168 48.92057305 16.694022 51.79296875 13.93359375 C54 12 54 12 57 11 C56.74034932 12.68925678 56.46663334 14.37635305 56.1875 16.0625 C55.96126953 17.47208984 55.96126953 17.47208984 55.73046875 18.91015625 C55.04385014 21.81451627 54.0063718 24.2954424 52.78686523 27.00756836 C51.22768716 30.95558333 50.3938332 35.12298482 49.4375 39.25 C49.02508569 41.02733967 48.60733675 42.80345214 48.18359375 44.578125 C47.91373657 45.74456543 47.91373657 45.74456543 47.63842773 46.93457031 C47 49 47 49 45 52 C42.35546875 52.94921875 42.35546875 52.94921875 39.1875 53.6875 C37.63095703 54.06455078 37.63095703 54.06455078 36.04296875 54.44921875 C29.0676426 55.71176174 29.0676426 55.71176174 25.75 53.5 C20.74773164 50.77148998 15.35602993 51.82971552 9.86523438 52.51538086 C5.37313298 53.01753358 0.99740175 53.06771376 -3.515625 52.95703125 C-5.11326873 52.93463544 -6.71092589 52.91318086 -8.30859375 52.89257812 C-10.77463616 52.85568766 -13.23996145 52.81274253 -15.70556641 52.75317383 C-27.09444102 52.49210753 -38.13211694 52.42141129 -48 59 C-50.1875 58.625 -50.1875 58.625 -52 58 C-51.96875 55.76171875 -51.96875 55.76171875 -51 53 C-48.47361014 51.33077813 -46.22169482 50.06463796 -43.5 48.8125 C-42.76313965 48.46445312 -42.0262793 48.11640625 -41.26708984 47.7578125 C-30.12039485 42.62113204 -20.10750436 42.76490283 -8 43 C-8.33 42.34 -8.66 41.68 -9 41 C-9.38679554 35.77826027 -8.69745748 32.8235319 -6.125 28.3125 C-2.05700766 20.1286566 -1.68736562 11.76247343 -1.2019043 2.74316406 C-1 1 -1 1 0 0 Z " fill="#8C4639" transform="translate(519,598)"/>
<path d="M0 0 C-1.68341412 4.05999875 -4.51153934 7.11264028 -7.375 10.375 C-8.46230696 11.62884782 -9.54954457 12.88275579 -10.63671875 14.13671875 C-11.47275635 15.09650635 -11.47275635 15.09650635 -12.32568359 16.07568359 C-14.95892812 19.10211015 -17.57489046 22.14325662 -20.1875 25.1875 C-20.68072754 25.76177734 -21.17395508 26.33605469 -21.68212891 26.92773438 C-26.20929475 32.21418908 -30.62514752 37.58667244 -35 43 C-37.89878769 41.70578044 -39.78384618 40.42138761 -41.84765625 38.015625 C-42.36513428 37.4170166 -42.8826123 36.8184082 -43.41577148 36.20166016 C-43.95919189 35.5576123 -44.5026123 34.91356445 -45.0625 34.25 C-45.91533569 33.25105713 -45.91533569 33.25105713 -46.78540039 32.23193359 C-50.5795571 27.75796626 -54.29632474 23.22424473 -57.9375 18.625 C-58.3610376 18.09165039 -58.7845752 17.55830078 -59.22094727 17.00878906 C-61.67888095 13.85761677 -63.95011198 10.61800274 -66.15844727 7.28662109 C-66.69244644 6.48211517 -67.22644562 5.67760925 -67.77662659 4.84872437 C-68.18033981 4.23864532 -68.58405304 3.62856628 -69 3 C-68.43418213 3.00444122 -67.86836426 3.00888245 -67.28540039 3.01345825 C-61.31399095 3.05823635 -55.34263035 3.08808842 -49.37109375 3.10986328 C-47.15232399 3.11982589 -44.93356703 3.13340085 -42.71484375 3.15087891 C-28.37203644 3.26090947 -13.9236069 0 0 0 Z " fill="#FCB180" transform="translate(659,520)"/>
<path d="M0 0 C2.5 1.375 2.5 1.375 5 3 C5 3.66 5 4.32 5 5 C5.66 5 6.32 5 7 5 C7 4.34 7 3.68 7 3 C13.49677419 3.61290323 13.49677419 3.61290323 15.5234375 5.171875 C19.09022528 9.58789797 21.39924683 14.98109973 24 20 C24.54398438 21.03511719 25.08796875 22.07023438 25.6484375 23.13671875 C34 39.35231599 34 39.35231599 34 47 C31 46 31 46 29.7890625 43.62890625 C29.40492188 42.61699219 29.02078125 41.60507812 28.625 40.5625 C26.74650022 35.81593359 24.72251568 31.2609878 22.390625 26.72265625 C21.314108 24.61498111 20.26624033 22.50055888 19.234375 20.37109375 C18.92677246 19.74122559 18.61916992 19.11135742 18.30224609 18.46240234 C17.41489443 16.64424262 16.53157032 14.82411892 15.6484375 13.00390625 C14.26644102 10.48552877 13.2805229 8.71195417 11 7 C8.83700789 7.22757731 8.83700789 7.22757731 7 8 C6.06380187 11.15506142 5.8942877 13.96586502 5.9375 17.25 C5.94652344 18.14203125 5.95554687 19.0340625 5.96484375 19.953125 C5.97644531 20.62859375 5.98804688 21.3040625 6 22 C7.32 22 8.64 22 10 22 C13.42687434 25.30385834 14.88548798 30.15859075 16.625 34.5 C16.93695312 35.25925781 17.24890625 36.01851562 17.5703125 36.80078125 C20.01835242 42.82591398 21.12692706 47.39979304 21 54 C20.01 54 19.02 54 18 54 C17.60675537 52.84213989 17.60675537 52.84213989 17.20556641 51.66088867 C16.0165362 48.16821105 14.8208521 44.67784745 13.625 41.1875 C13.2125 39.97255859 12.8 38.75761719 12.375 37.50585938 C11.97539063 36.34248047 11.57578125 35.17910156 11.1640625 33.98046875 C10.79748535 32.90692139 10.4309082 31.83337402 10.05322266 30.72729492 C9.05380387 27.84485307 9.05380387 27.84485307 7 25 C6.01 25 5.02 25 4 25 C0.97970975 31.79565306 -0.05316472 37.95618614 1.48562622 45.32575989 C1.99312079 47.96423484 2.25157624 50.50299002 2.43310547 53.18237305 C2.50342987 54.19079758 2.57375427 55.19922211 2.64620972 56.23820496 C2.71913239 57.31846451 2.79205505 58.39872406 2.8671875 59.51171875 C3.03206594 61.81969624 3.19744648 64.1276379 3.36328125 66.43554688 C3.62056573 70.05786726 3.874513 73.68030142 4.11962891 77.3034668 C4.35853645 80.81119443 4.61179892 84.31765748 4.8671875 87.82421875 C4.93606171 88.89435715 5.00493591 89.96449554 5.07589722 91.06706238 C5.5201187 97.00432862 6.45249045 102.30692254 8.38357544 107.94758606 C9 110 9 110 9 113 C2.6174318 112.63872255 2.6174318 112.63872255 0.1875 110.125 C-3.01734716 101.69119169 -3.47562417 92.36391497 -4.125 83.4375 C-4.20919189 82.29998291 -4.29338379 81.16246582 -4.38012695 79.99047852 C-5.29356706 66.87747666 -5.35221992 53.93215555 -4.26831055 40.82983398 C-3.90754107 36.02017257 -4.15095358 31.72822258 -5 27 C-5.66 26.34 -6.32 25.68 -7 25 C-9.60280568 25.32041397 -9.60280568 25.32041397 -12 26 C-12.20157715 26.60473145 -12.4031543 27.20946289 -12.61083984 27.83251953 C-17.2734375 41.8203125 -17.2734375 41.8203125 -18.19042969 44.54003906 C-18.85233001 46.55128986 -19.4544751 48.58212008 -20.0390625 50.6171875 C-20.35617187 51.40351562 -20.67328125 52.18984375 -21 53 C-22.485 53.495 -22.485 53.495 -24 54 C-23.60091867 42.82572277 -19.10112357 30.54338096 -12.58984375 21.44140625 C-11 20 -11 20 -7.125 19.4375 C-6.09375 19.623125 -5.0625 19.80875 -4 20 C-2.83538574 16.50615721 -2.86431681 13.66344611 -3 10 C-4.04490735 8.7321044 -4.04490735 8.7321044 -6.375 8.875 C-9.11093048 8.88656262 -9.11093048 8.88656262 -12 10 C-11.34 8.68 -10.68 7.36 -10 6 C-3.25 5.875 -3.25 5.875 -1 7 C-0.67 4.69 -0.34 2.38 0 0 Z " fill="#FCAE82" transform="translate(603,576)"/>
<path d="M0 0 C0.66547852 0.20447754 1.33095703 0.40895508 2.01660156 0.61962891 C9.39889684 3.07236036 15.93169525 7.50090361 20.625 13.75 C21.44871295 16.24052033 21.57078478 18.09345405 21.625 20.75 C19.625 21.5625 19.625 21.5625 16.625 21.75 C14.58944108 20.70288322 12.77036443 19.44864484 10.87890625 18.16015625 C4.42281376 14.12090254 -2.88092392 11.70995071 -10.47265625 11.50390625 C-11.43880859 11.47103516 -12.40496094 11.43816406 -13.40039062 11.40429688 C-15.42891892 11.34298444 -17.45757312 11.28570756 -19.48632812 11.23242188 C-20.45119141 11.19826172 -21.41605469 11.16410156 -22.41015625 11.12890625 C-23.2906665 11.1038501 -24.17117676 11.07879395 -25.07836914 11.05297852 C-27.375 10.75 -27.375 10.75 -30.375 8.75 C-30.11321412 4.91047378 -29.83124385 3.20624385 -27.0625 0.4375 C-18.91031881 -4.68131145 -8.70611522 -2.70127268 0 0 Z " fill="#F39F72" transform="translate(715.375,289.25)"/>
<path d="M0 0 C1.31387695 -0.0299707 1.31387695 -0.0299707 2.65429688 -0.06054688 C6.85213232 -0.05736429 9.22498681 0.08871052 12.8984375 2.26953125 C14.8125 4.4375 14.8125 4.4375 15.25 7.5625 C14.8125 10.4375 14.8125 10.4375 12.8125 12.4375 C10.85717773 12.74047852 10.85717773 12.74047852 8.49609375 12.81640625 C7.22668945 12.86764648 7.22668945 12.86764648 5.93164062 12.91992188 C5.04669922 12.94634766 4.16175781 12.97277344 3.25 13 C1.49855308 13.05969399 -0.25276689 13.12328412 -2.00390625 13.19140625 C-2.78193604 13.21533447 -3.55996582 13.2392627 -4.36157227 13.26391602 C-6.20598649 13.24364889 -6.20598649 13.24364889 -7.1875 14.4375 C-8.78976955 14.65995393 -10.39446767 14.86496669 -12 15.0625 C-18.08063454 16.06933258 -22.39237343 18.66557526 -27.4609375 22.07421875 C-30.61170862 23.64960431 -31.90137183 23.51893491 -35.1875 22.4375 C-34.94450724 17.45614844 -33.40094631 14.72701495 -30.12109375 11.171875 C-21.40118888 3.35038457 -11.5214869 -0.09450884 0 0 Z " fill="#F29F72" transform="translate(518.1875,287.5625)"/>
<path d="M0 0 C0.66 0.99 1.32 1.98 2 3 C1.34 3 0.68 3 0 3 C-0.80658276 25.0917146 -0.80658276 25.0917146 9.31640625 44.23046875 C10.85379415 45.84633121 12.4084699 47.43749477 14 49 C5.28540319 52.06651115 -2.76208649 53.69761331 -12 54 C-12.191016 48.13198848 -11.80461608 42.72989411 -10.4375 37 C-10.26694092 36.25814453 -10.09638184 35.51628906 -9.9206543 34.75195312 C-3.23924092 6.47848183 -3.23924092 6.47848183 0 0 Z " fill="#F9B486" transform="translate(533,675)"/>
<path d="M0 0 C2.74078782 4.11118173 3.70316091 8.25225013 5 13 C5.29293945 14.04800781 5.29293945 14.04800781 5.59179688 15.1171875 C8.9861081 27.3738493 11.03903251 39.32096619 12 52 C2.66027385 51.40076978 -6.34826007 49.64034959 -15 46 C-10 42 -10 42 -7.4375 40.25 C-2.5629731 35.75043671 -0.91084894 30.44270889 0 24 C0.07651913 22.05592048 0.10811623 20.10961922 0.09765625 18.1640625 C0.09443359 17.10058594 0.09121094 16.03710938 0.08789062 14.94140625 C0.07951172 13.84699219 0.07113281 12.75257813 0.0625 11.625 C0.05798828 10.50738281 0.05347656 9.38976562 0.04882812 8.23828125 C0.03709244 5.49213196 0.02067363 2.74609414 0 0 Z " fill="#F8B184" transform="translate(693,682)"/>
<path d="M0 0 C0.825 0.28875 1.65 0.5775 2.5 0.875 C1.85436316 6.1764969 -0.25452525 7.94762494 -4.23828125 11.23046875 C-14.11613587 18.41281209 -24.63595952 18.84581748 -36.5 17.875 C-43.51083513 16.40369958 -50.79883118 12.336986 -55.5 6.875 C-55.7421875 4.15234375 -55.7421875 4.15234375 -55.5 1.875 C-52.51380901 0.96707198 -51.09164305 0.57351928 -48.25390625 2.01953125 C-47.53074219 2.56996094 -46.80757812 3.12039063 -46.0625 3.6875 C-38.39289352 9.46371526 -30.81392805 9.52265725 -21.5 8.875 C-14.78842036 7.78092058 -10.51425316 5.31867232 -5.328125 1.0390625 C-3.5 -0.125 -3.5 -0.125 0 0 Z " fill="#523C2B" transform="translate(729.5,397.125)"/>
<path d="M0 0 C4.68409323 0.14194222 7.40179063 2.65406321 10.83984375 5.52734375 C17.80486914 10.2756522 26.89809237 10.02397482 35 9 C40.1615897 7.53171409 44.90978109 5.63582349 49.15625 2.3125 C51 1 51 1 53.75 1.3125 C54.4925 1.539375 55.235 1.76625 56 2 C55.92291172 4.6210015 55.45700391 6.43319646 53.796875 8.4921875 C45.60063607 16.17118805 36.03608407 18.68387618 25.08862305 18.453125 C15.40761487 17.9977027 9.30055262 15.23177802 2 9 C1.154375 8.29875 0.30875 7.5975 -0.5625 6.875 C-2 5 -2 5 -1.8125 2.8125 C-1 1 -1 1 0 0 Z " fill="#533C2C" transform="translate(491,397)"/>
<path d="M0 0 C1.85625 0.061875 1.85625 0.061875 3.75 0.125 C4.375 2 4.375 2 4.75 4.125 C2.5451908 6.3298092 1.43875155 6.62284608 -1.5 7.4375 C-7.81536655 9.47504202 -12.40768076 12.88972605 -15.6484375 18.91015625 C-16.73404938 22.9071818 -15.88570523 26.89831504 -15.4375 30.96484375 C-15.13099491 36.13073168 -16.2815649 39.832158 -19.6484375 43.75390625 C-21.1875 45.1875 -21.1875 45.1875 -24.25 47.125 C-26.625 46.9375 -26.625 46.9375 -28.25 46.125 C-27.81950512 43.21915955 -27.2493724 42.12433437 -25.1875 39.9375 C-22.54629358 36.10349068 -22.51793287 32.67062616 -23.25 28.125 C-23.91 27.135 -24.57 26.145 -25.25 25.125 C-24.83590531 17.39523236 -19.64269654 11.21204821 -14.08203125 6.15234375 C-9.67035665 2.7835791 -5.72395838 -0.19079861 0 0 Z " fill="#F8A77C" transform="translate(831.25,371.875)"/>
<path d="M0 0 C3.5192929 0.31993572 5.54541107 1.29400294 8.25 3.4375 C14.45354231 8.08344294 22.44056444 8.81448464 30 8 C36.154451 6.77294435 41.12471174 4.65685685 46.2109375 0.98828125 C48 0 48 0 52 0 C52.495 2.475 52.495 2.475 53 5 C42.05269277 14.17372115 32.17509743 16.14697413 18.14648438 15.22753906 C10.0938362 14.37391439 4.70442455 10.45640609 -1 5 C-0.67 3.35 -0.34 1.7 0 0 Z " fill="#F09267" transform="translate(584,452)"/>
<path d="M0 0 C7.64343097 -0.52713317 10.61472798 1.44435803 16.7734375 6.09375 C21.54894803 10.51073871 24.19576325 13.48642568 24.53515625 20.02734375 C24.5460925 23.57840856 24.32050701 27.08150361 24.05859375 30.62109375 C23.82088103 34.18777456 23.82088103 34.18777456 25.47265625 37.34765625 C25.97667969 37.89292969 26.48070312 38.43820312 27 39 C27 40.32 27 41.64 27 43 C23.49979578 42.6999825 22.05095809 42.04266259 19.3125 39.75 C15.10215856 34.74310748 14.50405338 30.44730604 15 24 C15.2475 22.96875 15.495 21.9375 15.75 20.875 C16.25321564 17.87366725 16.25321564 17.87366725 14.5625 14.9375 C10.32695881 10.08212351 5.08439015 7.09150912 -1 5 C-0.67 3.35 -0.34 1.7 0 0 Z " fill="#F8A579" transform="translate(407,373)"/>
<path d="M0 0 C-0.1875 2.3125 -0.1875 2.3125 -1 5 C-2.63064764 6.05771739 -4.30280873 7.05273046 -6 8 C-9.92355296 11.37861505 -10.32954058 14.34874295 -10.75 19.3125 C-10.85057883 21.20749667 -10.93949923 23.10330073 -11 25 C-12.32 25 -13.64 25 -15 25 C-17.49954518 21.25068223 -17.86262233 18.33561485 -17 14 C-14.40283883 8.70144377 -10.98731565 4.23501556 -6 1 C-3 0 -3 0 0 0 Z " fill="#FDB78C" transform="translate(552,1088)"/>
<path d="M0 0 C1.65 1.32 3.3 2.64 5 4 C3.46844274 7.4281489 1.43584825 10.10071425 -0.9375 13 C-3.87023741 16.59001329 -3.87023741 16.59001329 -6.62890625 20.3125 C-7.08136719 20.869375 -7.53382813 21.42625 -8 22 C-8.66 22 -9.32 22 -10 22 C-11.625 20 -11.625 20 -13 18 C-11.39344468 14.30666901 -9.07760395 11.51305016 -6.5 8.4375 C-4.18760361 5.67088289 -2.00082301 3.00123452 0 0 Z " fill="#844234" transform="translate(618,559)"/>
<path d="M0 0 C0.33 0 0.66 0 1 0 C1.33 1.98 1.66 3.96 2 6 C3.32 6 4.64 6 6 6 C9.42687434 9.30385834 10.88548798 14.15859075 12.625 18.5 C12.93695312 19.25925781 13.24890625 20.01851562 13.5703125 20.80078125 C16.01835242 26.82591398 17.12692706 31.39979304 17 38 C16.01 38 15.02 38 14 38 C13.73783691 37.22809326 13.47567383 36.45618652 13.20556641 35.66088867 C12.0165362 32.16821105 10.8208521 28.67784745 9.625 25.1875 C9.2125 23.97255859 8.8 22.75761719 8.375 21.50585938 C7.97539063 20.34248047 7.57578125 19.17910156 7.1640625 17.98046875 C6.79748535 16.90692139 6.4309082 15.83337402 6.05322266 14.72729492 C5.05380387 11.84485307 5.05380387 11.84485307 3 9 C2.01 8.67 1.02 8.34 0 8 C0 5.36 0 2.72 0 0 Z " fill="#FDB990" transform="translate(607,592)"/>
<path d="M0 0 C1.03125 0.185625 2.0625 0.37125 3.125 0.5625 C3.75 2.375 3.75 2.375 4.125 4.5625 C3.135 6.0475 3.135 6.0475 2.125 7.5625 C1.465 6.9025 0.805 6.2425 0.125 5.5625 C-2.47780568 5.88291397 -2.47780568 5.88291397 -4.875 6.5625 C-5.07657715 7.16723145 -5.2781543 7.77196289 -5.48583984 8.39501953 C-10.1484375 22.3828125 -10.1484375 22.3828125 -11.06542969 25.10253906 C-11.72733001 27.11378986 -12.3294751 29.14462008 -12.9140625 31.1796875 C-13.38972656 32.35917969 -13.38972656 32.35917969 -13.875 33.5625 C-15.36 34.0575 -15.36 34.0575 -16.875 34.5625 C-16.47591867 23.38822277 -11.97612357 11.10588096 -5.46484375 2.00390625 C-3.875 0.5625 -3.875 0.5625 0 0 Z " fill="#FCB88E" transform="translate(595.875,595.4375)"/>
<path d="M0 0 C2.125 0 2.125 0 5 1 C11.11384172 7.26010588 12.10441773 12.56427486 12.1328125 21.01171875 C12 23 12 23 11 25 C9.68 25 8.36 25 7 25 C6.92523437 24.16597656 6.85046875 23.33195312 6.7734375 22.47265625 C5.93659994 15.31031127 4.70067794 10.45985786 0.14453125 4.8046875 C-0.23316406 4.20914062 -0.61085938 3.61359375 -1 3 C-0.67 2.01 -0.34 1.02 0 0 Z " fill="#FCB68C" transform="translate(702,1087)"/>
<path d="M0 0 C2.94905792 3.66741818 5.19780477 7.66227382 7.5 11.75 C7.89058594 12.42804687 8.28117188 13.10609375 8.68359375 13.8046875 C11.28982265 18.42043295 13.24581704 22.9971338 15 28 C15.391875 29.0725 15.78375 30.145 16.1875 31.25 C17 34 17 34 17 38 C14 37 14 37 12.7890625 34.62890625 C12.40492188 33.61699219 12.02078125 32.60507812 11.625 31.5625 C9.73922946 26.78896742 7.6741827 22.23275955 5.3359375 17.66796875 C2.75355089 12.51074637 0.39323022 7.24701334 -2 2 C-1.34 1.34 -0.68 0.68 0 0 Z " fill="#FDB68D" transform="translate(620,585)"/>
<path d="M0 0 C4.33875787 0.73251756 5.99288314 2.71486964 8.66796875 6.046875 C12.63034571 11.85681189 12.10370138 17.42253635 11 24 C9.35 23.67 7.7 23.34 6 23 C6.061875 22.01 6.12375 21.02 6.1875 20 C6.1763766 14.51616337 4.65193301 9.65193301 0.75 5.75 C0.1725 5.1725 -0.405 4.595 -1 4 C-0.75 1.75 -0.75 1.75 0 0 Z " fill="#FDB78E" transform="translate(726,1085)"/>
<path d="M0 0 C0.5775 0.226875 1.155 0.45375 1.75 0.6875 C1.75 1.6775 1.75 2.6675 1.75 3.6875 C0.27447066 4.93350255 -1.2051443 6.17553888 -2.71875 7.375 C-7.01882243 11.06077637 -7.75483357 15.2406693 -8.25 20.6875 C-8.25 22.0075 -8.25 23.3275 -8.25 24.6875 C-9.57 24.3575 -10.89 24.0275 -12.25 23.6875 C-13.66995785 17.62040735 -12.84408581 13.34345759 -10.25 7.6875 C-4.63542242 -0.64380867 -4.63542242 -0.64380867 0 0 Z " fill="#FDB78E" transform="translate(527.25,1085.3125)"/>
<path d="M0 0 C0.99 0.33 1.98 0.66 3 1 C3 1.99 3 2.98 3 4 C1.53298243 5.24377577 0.05985071 6.48518173 -1.4921875 7.62109375 C-4.93556064 10.77008525 -5.30371167 14.25196342 -5.625 18.75 C-5.69976562 19.73484375 -5.77453125 20.7196875 -5.8515625 21.734375 C-5.90054687 22.48203125 -5.94953125 23.2296875 -6 24 C-7.65 23.67 -9.3 23.34 -11 23 C-11.4577015 16.59217907 -10.58246607 12.37945869 -7 7 C-4.375 4.125 -4.375 4.125 -2 2 C-1.34 1.34 -0.68 0.68 0 0 Z " fill="#FDB78D" transform="translate(510,1079)"/>
<path d="M0 0 C-0.42546713 2.46770934 -0.68695262 3.71199641 -2.5625 5.4375 C-4.21693525 6.95545522 -4.21693525 6.95545522 -4.4375 9.4375 C-3.87318596 12.74276794 -2.39852209 13.75138554 0 16 C0 16.99 0 17.98 0 19 C-6.3006993 18.52447552 -6.3006993 18.52447552 -9 16.5 C-10.57914566 12.55213585 -10.18688407 9.04259907 -9 5 C-5.95412593 0.96627488 -5.13500633 0 0 0 Z " fill="#FDB58B" transform="translate(604,415)"/>
<path d="M0 0 C2.69958293 0.67489573 4.51280712 1.33491762 6.1875 3.62109375 C10.14113006 10.61262338 10.14113006 10.61262338 10.125 15 C10.12757813 15.70125 10.13015625 16.4025 10.1328125 17.125 C10 19 10 19 9 21 C7.68 21 6.36 21 5 21 C4.938125 19.700625 4.87625 18.40125 4.8125 17.0625 C4.31798231 12.24665847 2.57001995 8.96704732 -0.0390625 4.9453125 C-1 3 -1 3 0 0 Z " fill="#FDB78C" transform="translate(748,1081)"/>
<path d="M0 0 C1 1 1 1 1.1875 4.4375 C1 8 1 8 -1 10 C-1.33 9.34 -1.66 8.68 -2 8 C-4.97 8 -7.94 8 -11 8 C-9.54205607 2.41121495 -9.54205607 2.41121495 -7.1875 0.625 C-4.67373033 -0.09321991 -2.601945 -0.21096851 0 0 Z " fill="#F9CDAB" transform="translate(602,575)"/>
<path d="M0 0 C5.99725275 2.10714286 5.99725275 2.10714286 8 5 C7.6875 7.1875 7.6875 7.1875 7 9 C3.69058796 9 1.88909849 8.59660706 -1 7 C-1.9375 4.5 -1.9375 4.5 -2 2 C-1.34 1.34 -0.68 0.68 0 0 Z " fill="#C27E41" transform="translate(428,371)"/>
<path d="M0 0 C0.33 0 0.66 0 1 0 C1.20638953 23.58238484 1.20638953 23.58238484 0 35 C-0.66 35 -1.32 35 -2 35 C-2.02689449 32.04160645 -2.04678741 29.08345573 -2.0625 26.125 C-2.07087891 25.28324219 -2.07925781 24.44148437 -2.08789062 23.57421875 C-2.09111328 22.76855469 -2.09433594 21.96289062 -2.09765625 21.1328125 C-2.10289307 20.38918457 -2.10812988 19.64555664 -2.11352539 18.87939453 C-2 17 -2 17 -1 15 C-0.76827173 12.45384991 -0.58105471 9.92603775 -0.4375 7.375 C-0.39431641 6.66859375 -0.35113281 5.9621875 -0.30664062 5.234375 C-0.20055249 3.48981463 -0.09977111 1.74493303 0 0 Z " fill="#A45A4F" transform="translate(463,974)"/>
<path d="M0 0 C0.33 0 0.66 0 1 0 C2.0411073 10.70652232 1.84626716 20.38014921 0 31 C-0.66 30.67 -1.32 30.34 -2 30 C-1.47703281 19.98573465 -0.92041114 9.98744003 0 0 Z " fill="#A76359" transform="translate(473,836)"/>
<path d="M0 0 C0.33 0 0.66 0 1 0 C1.0246519 4.82380802 1.04283693 9.64757967 1.05493164 14.47143555 C1.05997174 16.11369464 1.06680378 17.75594923 1.07543945 19.39819336 C1.08751926 21.75375479 1.09323139 24.10925709 1.09765625 26.46484375 C1.10281754 27.20339096 1.10797882 27.94193817 1.11329651 28.7028656 C1.1134925 30.46898088 1.06194719 32.23497146 1 34 C0.505 34.495 0.505 34.495 0 35 C-0.23363881 36.84891946 -0.41303635 38.70488031 -0.5625 40.5625 C-0.64628906 41.57441406 -0.73007812 42.58632813 -0.81640625 43.62890625 C-0.90728516 44.80259766 -0.90728516 44.80259766 -1 46 C-1.33 46 -1.66 46 -2 46 C-2.15964435 35.8503888 -1.65955688 25.80771416 -1 15.6875 C-0.90327399 14.1569245 -0.80691766 12.62632558 -0.7109375 11.09570312 C-0.478205 7.3968567 -0.24052222 3.69834905 0 0 Z " fill="#B98279" transform="translate(465,920)"/>
<path d="M0 0 C2.25998595 3.59462331 2.20868087 6.56595675 2.125 10.75 C2.10695313 11.92046875 2.08890625 13.0909375 2.0703125 14.296875 C2.03550781 15.63492187 2.03550781 15.63492187 2 17 C0.01299578 15.35810704 -0.92039017 14.50609104 -1.328125 11.9140625 C-1.30234375 11.15867187 -1.2765625 10.40328125 -1.25 9.625 C-1.22421875 8.83480469 -1.1984375 8.04460937 -1.171875 7.23046875 C-0.98143288 4.75904936 -0.61964403 2.40112063 0 0 Z " fill="#FDBA90" transform="translate(431,394)"/>
<path d="M0 0 C2.64 0.33 5.28 0.66 8 1 C8 1.99 8 2.98 8 4 C6.68 3.34 5.36 2.68 4 2 C3.67 3.32 3.34 4.64 3 6 C1.02 5.34 -0.96 4.68 -3 4 C-2.01 2.68 -1.02 1.36 0 0 Z " fill="#FBC59E" transform="translate(614,575)"/>
<path d="M0 0 C6.625 -0.125 6.625 -0.125 10 1 C9.67 3.64 9.34 6.28 9 9 C8.67 9 8.34 9 8 9 C7.34 7.02 6.68 5.04 6 3 C2.95613276 2.91773332 0.92824652 3.02391783 -2 4 C-1.34 2.68 -0.68 1.36 0 0 Z " fill="#FCBA92" transform="translate(593,582)"/>
<path d="M0 0 C0.33 0 0.66 0 1 0 C1.33 4.95 1.66 9.9 2 15 C1.01 15.66 0.02 16.32 -1 17 C-0.67 11.39 -0.34 5.78 0 0 Z " fill="#BA837A" transform="translate(467,898)"/>
<path d="M0 0 C0.33 0 0.66 0 1 0 C1.33 3.96 1.66 7.92 2 12 C1.34 12 0.68 12 0 12 C0 13.98 0 15.96 0 18 C-0.33 18 -0.66 18 -1 18 C-0.505 9.09 -0.505 9.09 0 0 Z " fill="#B07167" transform="translate(469,877)"/>
<path d="M0 0 C0.33 0 0.66 0 1 0 C1.24875561 2.26877104 1.47339246 4.54019735 1.6875 6.8125 C1.81511719 8.07707031 1.94273437 9.34164062 2.07421875 10.64453125 C2 14 2 14 -1 17 C-0.67 11.39 -0.34 5.78 0 0 Z " fill="#AB7C73" transform="translate(476,808)"/>
<path d="M0 0 C1.32 0.33 2.64 0.66 4 1 C4 1.66 4 2.32 4 3 C1.09451118 5.04169485 -0.40142046 6 -4 6 C-2.68 4.02 -1.36 2.04 0 0 Z " fill="#9A5445" transform="translate(659,520)"/>
<path d="M0 0 C2.4375 0.1875 2.4375 0.1875 5 1 C6.3125 3.0625 6.3125 3.0625 7 5 C6.01 4.34 5.02 3.68 4 3 C1.37468476 2.83286431 1.37468476 2.83286431 -1 3 C-1.33 3.66 -1.66 4.32 -2 5 C-1.125 1.125 -1.125 1.125 0 0 Z " fill="#614836" transform="translate(491,397)"/>
<path d="M0 0 C0.66 0.33 1.32 0.66 2 1 C1.67 1.99 1.34 2.98 1 4 C0.34 4 -0.32 4 -1 4 C-1.33 5.65 -1.66 7.3 -2 9 C-2.66 9 -3.32 9 -4 9 C-2.94124926 5.59687262 -1.99097846 2.98646769 0 0 Z " fill="#F2BD9B" transform="translate(541,658)"/>
<path d="M0 0 C2.97 0.495 2.97 0.495 6 1 C6 1.66 6 2.32 6 3 C4.35 3.66 2.7 4.32 1 5 C0.34 4.34 -0.32 3.68 -1 3 C-0.67 2.01 -0.34 1.02 0 0 Z " fill="#F9EFEA" transform="translate(538,513)"/>
<path d="M0 0 C0 0.66 0 1.32 0 2 C-2.64 2.66 -5.28 3.32 -8 4 C-8.33 3.34 -8.66 2.68 -9 2 C-5.62902617 0.50178941 -3.79557881 0 0 0 Z " fill="#945848" transform="translate(718,505)"/>
<path d="M0 0 C2.64 0.33 5.28 0.66 8 1 C8 1.99 8 2.98 8 4 C5.36 3.34 2.72 2.68 0 2 C0 1.34 0 0.68 0 0 Z " fill="#EDB799" transform="translate(614,575)"/>
<path d="M0 0 C0.66 0.33 1.32 0.66 2 1 C0.35 2.98 -1.3 4.96 -3 7 C-3.66 6.34 -4.32 5.68 -5 5 C-3.35 3.35 -1.7 1.7 0 0 Z " fill="#A45C51" transform="translate(505,539)"/>
<path d="M0 0 C1.42944945 2.35438733 2.08661261 3.48032433 1.625 6.25 C1.41875 6.8275 1.2125 7.405 1 8 C0.34 8 -0.32 8 -1 8 C-0.67 5.36 -0.34 2.72 0 0 Z " fill="#F1BB90" transform="translate(775,408)"/>
</svg>
